<svg xmlns="http://www.w3.org/2000/svg" xmlns:xlink="http://www.w3.org/1999/xlink" width="57" height="57" viewBox="0 0 57 57"><defs><clipPath id="a"><rect width="57" height="57" fill="#fff"/></clipPath><clipPath id="b"><rect width="57" height="57" transform="translate(0 0)" fill="#fff"/></clipPath></defs><g clip-path="url(#a)"><g transform="translate(0 0)"><g clip-path="url(#b)"><path d="M862.481,435.029h24.651v8.535a.947.947,0,0,0,.947.948h8.533v37.932H862.481Zm32.79,7.586h-6.244V436.37Zm-34.686-8.535v49.31a.947.947,0,0,0,.947.948h36.028a.948.948,0,0,0,.947-.948V443.564a.371.371,0,0,0-.012-.059.881.881,0,0,0-.049-.244.925.925,0,0,0-.031-.09.889.889,0,0,0-.19-.277l-9.48-9.483a.917.917,0,0,0-.279-.19c-.029-.012-.058-.021-.087-.03a.97.97,0,0,0-.247-.05c-.015,0-.035-.008-.055-.008H861.533A.947.947,0,0,0,860.586,434.081Z" transform="translate(-853.909 -427.39)" fill="#fff"/><path d="M898.453,478.707v1.9H901.3a.949.949,0,0,0,.948-.948v-49.31a.949.949,0,0,0-.948-.948H865.271a.949.949,0,0,0-.948.948v2.845h1.9v-1.9h34.13v47.415Z" transform="translate(-851.957 -429.342)" fill="#fff"/><rect width="22.754" height="1.896" transform="translate(14.262 19.019)" fill="#fff"/><rect width="7.585" height="1.897" transform="translate(14.262 13.329)" fill="#fff"/><rect width="15.17" height="1.897" transform="translate(14.262 24.708)" fill="#fff"/><rect width="5.688" height="1.897" transform="translate(31.327 24.708)" fill="#fff"/><rect width="22.754" height="1.897" transform="translate(14.262 30.398)" fill="#fff"/><rect width="22.754" height="1.897" transform="translate(14.262 41.777)" fill="#fff"/><rect width="14.222" height="1.896" transform="translate(22.794 36.088)" fill="#fff"/><rect width="6.637" height="1.896" transform="translate(14.262 36.088)" fill="#fff"/><rect width="3.792" height="1.896" transform="translate(14.262 47.468)" fill="#fff"/><rect width="17.065" height="1.896" transform="translate(19.95 47.468)" fill="#fff"/></g></g></g></svg>