<svg xmlns="http://www.w3.org/2000/svg" xmlns:xlink="http://www.w3.org/1999/xlink" width="57" height="57" viewBox="0 0 57 57">
  <defs>
    <clipPath id="clip-path">
      <rect id="SVGID" width="57" height="57" transform="translate(-0.067)" fill="#fff"/>
    </clipPath>
    <clipPath id="clip-path-2">
      <rect id="SVGID-2" data-name="SVGID" width="57" height="57" transform="translate(-0.067 0)" fill="#fff"/>
    </clipPath>
    <clipPath id="clip-path-3">
      <rect id="SVGID-3" data-name="SVGID" width="56.915" height="56.916" fill="#fff"/>
    </clipPath>
  </defs>
  <g id="Group_53" data-name="Group 53" transform="translate(0.067)">
    <g id="Group_52" data-name="Group 52" transform="translate(0 0)" clip-path="url(#clip-path)">
      <g id="Group_51" data-name="Group 51" transform="translate(0 -0.001)">
        <g id="Group_50" data-name="Group 50" clip-path="url(#clip-path-2)">
          <path id="Path_58" data-name="Path 58" d="M253.212,335.186a14.452,14.452,0,1,1-14.45,14.452A14.468,14.468,0,0,1,253.212,335.186Zm-16.673,14.452a16.674,16.674,0,1,0,16.673-16.675A16.692,16.692,0,0,0,236.539,349.638Z" transform="translate(-224.585 -328.456)" fill="#fff"/>
          <path id="Path_59" data-name="Path 59" d="M248.505,345.121a1.11,1.11,0,0,0,.829-.6l1.969-3.937,1.97,3.937a1.11,1.11,0,0,0,.829.6l4.352.656-3.136,3.09a1.113,1.113,0,0,0-.317.973l.722,4.344-3.907-2.029a1.107,1.107,0,0,0-1.025,0l-3.908,2.029.722-4.344a1.109,1.109,0,0,0-.316-.973l-3.136-3.09Zm-7.5.68,4.309,4.244-.991,5.967a1.111,1.111,0,0,0,1.608,1.169l5.368-2.789,5.368,2.789a1.112,1.112,0,0,0,1.609-1.169l-.991-5.967L261.6,345.8a1.112,1.112,0,0,0-.615-1.891l-5.979-.9L252.3,337.6a1.11,1.11,0,0,0-1.988,0l-2.705,5.411-5.981.9a1.111,1.111,0,0,0-.614,1.891Z" transform="translate(-222.675 -326.601)" fill="#fff"/>
          <path id="Path_60" data-name="Path 60" d="M249.41,331.032a1.112,1.112,0,1,1-1.112-1.112A1.113,1.113,0,0,1,249.41,331.032Z" transform="translate(-219.671 -329.861)" fill="#fff"/>
          <g id="Group_49" data-name="Group 49" transform="translate(0.059 0.059)">
            <g id="Group_48" data-name="Group 48" clip-path="url(#clip-path-3)">
              <path id="Path_61" data-name="Path 61" d="M266.186,375.993a1.115,1.115,0,0,0-1.274.718l-2.184,6.156-6.247-10.983a21.154,21.154,0,0,0,10.554-3.953l5.3,9.341Zm-19.68,6.874-2.185-6.156a1.112,1.112,0,0,0-1.273-.718l-6.15,1.277,5.3-9.341a21.165,21.165,0,0,0,10.555,3.953Zm2.872-52.488a21.124,21.124,0,0,0-8.929,36.129l-6.7,11.8a1.112,1.112,0,0,0,1.194,1.637l7.6-1.578,2.673,7.533a1.112,1.112,0,0,0,2.014.177l7.379-12.974L262,386.078a1.108,1.108,0,0,0,.965.563c.034,0,.066,0,.1,0a1.11,1.11,0,0,0,.95-.735l2.673-7.533,7.606,1.578a1.111,1.111,0,0,0,1.193-1.637l-6.7-11.8a21.125,21.125,0,0,0-8.929-36.129,1.112,1.112,0,0,0-.551,2.154,18.9,18.9,0,1,1-9.377,0,1.112,1.112,0,0,0-.55-2.154Z" transform="translate(-226.049 -329.724)" fill="#fff"/>
            </g>
          </g>
        </g>
      </g>
    </g>
  </g>
</svg>
