<svg xmlns="http://www.w3.org/2000/svg" width="270" height="77.195" viewBox="0 0 270 77.195"><g transform="translate(0 1277.137)"><path d="M4626.889-1252.427H4621.8l6.93-6.951a5.887,5.887,0,0,0-4.767-.6,6.111,6.111,0,0,0-2.5,1.544l-3.608,3.583-3.658-3.636a5.865,5.865,0,0,0-1.893-1.292,5.889,5.889,0,0,0-5.321.4l6.929,6.951h-9.681a4.587,4.587,0,0,0,4.588,4.587h5l-7.343,7.339a7.047,7.047,0,0,0,2.962.655,6.883,6.883,0,0,0,4.9-2.023l3.517-3.516,3.516,3.516a6.892,6.892,0,0,0,4.9,2.023,7.056,7.056,0,0,0,2.962-.655l-7.344-7.339h9.59A4.589,4.589,0,0,0,4626.889-1252.427Z" transform="translate(-4386.346 1.48)" fill="#fff"/><path d="M4622.65-1273.212l-5.913-3.41a3.841,3.841,0,0,0-5.244,1.4l5.915,3.411A3.838,3.838,0,0,0,4622.65-1273.212Z" transform="translate(-4385.709)" fill="#fff"/><path d="M4612.543-1273.43l-6.677-1.417a3.838,3.838,0,0,0-4.554,2.95l6.679,1.42A3.839,3.839,0,0,0,4612.543-1273.43Z" transform="translate(-4386.6 0.193)" fill="#fff"/><path d="M4599.423-1266.237a3.836,3.836,0,0,0,3.415-4.215l-6.79.713a3.835,3.835,0,0,0-3.417,4.214Z" transform="translate(-4387.362 0.585)" fill="#fff"/><path d="M4594.5-1264.531l-6.236,2.774a3.836,3.836,0,0,0-1.947,5.063l6.238-2.774A3.831,3.831,0,0,0,4594.5-1264.531Z" transform="translate(-4387.941 1.103)" fill="#fff"/><path d="M4588.366-1256.371l-5.074,4.564a3.831,3.831,0,0,0-.284,5.414l5.076-4.563A3.831,3.831,0,0,0,4588.366-1256.371Z" transform="translate(-4388.289 1.818)" fill="#fff"/><path d="M4585.026-1246.77l-3.413,5.907a3.833,3.833,0,0,0,1.4,5.239l3.416-5.908A3.834,3.834,0,0,0,4585.026-1246.77Z" transform="translate(-4388.37 2.658)" fill="#fff"/><path d="M4584.807-1236.667l-1.419,6.672a3.835,3.835,0,0,0,2.958,4.548l1.419-6.672A3.836,3.836,0,0,0,4584.807-1236.667Z" transform="translate(-4388.176 3.542)" fill="#fff"/><path d="M4587.79-1227.05l.714,6.785a3.835,3.835,0,0,0,4.218,3.412l-.714-6.784A3.839,3.839,0,0,0,4587.79-1227.05Z" transform="translate(-4387.784 4.382)" fill="#fff"/><path d="M4593.715-1218.837l2.778,6.23a3.842,3.842,0,0,0,5.068,1.946l-2.777-6.233A3.84,3.84,0,0,0,4593.715-1218.837Z" transform="translate(-4387.265 5.074)" fill="#fff"/><path d="M4601.883-1212.829l4.57,5.07a3.842,3.842,0,0,0,5.419.284l-4.568-5.069A3.843,3.843,0,0,0,4601.883-1212.829Z" transform="translate(-4386.55 5.543)" fill="#fff"/><path d="M4611.494-1209.609l5.913,3.409a3.838,3.838,0,0,0,5.243-1.4l-5.913-3.411A3.841,3.841,0,0,0,4611.494-1209.609Z" transform="translate(-4385.709 5.743)" fill="#fff"/><path d="M4621.606-1209.5l6.679,1.416a3.836,3.836,0,0,0,4.553-2.951l-6.68-1.42A3.838,3.838,0,0,0,4621.606-1209.5Z" transform="translate(-4384.824 5.654)" fill="#fff"/><path d="M4634.65-1216.659a3.837,3.837,0,0,0-3.417,4.215l6.793-.713a3.834,3.834,0,0,0,3.415-4.214Z" transform="translate(-4383.983 5.231)" fill="#fff"/><path d="M4641.4-1223.193a3.834,3.834,0,0,0-1.946,5.063l6.238-2.774a3.837,3.837,0,0,0,1.947-5.063Z" transform="translate(-4383.291 4.479)" fill="#fff"/><path d="M4645.753-1231.533a3.835,3.835,0,0,0-.284,5.416l5.075-4.564a3.832,3.832,0,0,0,.284-5.415Z" transform="translate(-4382.821 3.592)" fill="#fff"/><path d="M4650.7-1246.77l-3.414,5.907a3.832,3.832,0,0,0,1.406,5.239l3.412-5.908A3.831,3.831,0,0,0,4650.7-1246.77Z" transform="translate(-4382.621 2.658)" fill="#fff"/><path d="M4648.806-1245.722l1.42-6.671a3.835,3.835,0,0,0-2.959-4.548l-1.418,6.671A3.834,3.834,0,0,0,4648.806-1245.722Z" transform="translate(-4382.71 1.768)" fill="#fff"/><path d="M4645.855-1255.418l-.716-6.785a3.836,3.836,0,0,0-4.219-3.411l.715,6.784A3.84,3.84,0,0,0,4645.855-1255.418Z" transform="translate(-4383.133 1.007)" fill="#fff"/><path d="M4640.163-1263.742l-2.778-6.232a3.84,3.84,0,0,0-5.067-1.944l2.776,6.232A3.842,3.842,0,0,0,4640.163-1263.742Z" transform="translate(-4383.886 0.428)" fill="#fff"/><path d="M4632.168-1269.875l-4.569-5.07a3.844,3.844,0,0,0-5.42-.283l4.57,5.07A3.841,3.841,0,0,0,4632.168-1269.875Z" transform="translate(-4384.774 0.081)" fill="#fff"/><path d="M4601.011-1233.05v2.308a5.212,5.212,0,0,0,2.508,4.47,29.923,29.923,0,0,1,5.071,3.849,2.914,2.914,0,0,0,2,.791s5.356-.012,5.35-.019a30.069,30.069,0,0,1,2.041-3.389,29.522,29.522,0,0,1,2.065,3.389c-.005.006,5.35.019,5.35.019a2.917,2.917,0,0,0,2-.79,29.814,29.814,0,0,1,5.07-3.85,5.211,5.211,0,0,0,2.51-4.469v-2.309a34.743,34.743,0,0,0-11.434,7.436,31.039,31.039,0,0,0-2.306-3.363,29.694,29.694,0,0,1,13.74-7.95l-.522-.523a6.607,6.607,0,0,0-7.6-1.276,36.026,36.026,0,0,0-8.861,6.173,36.078,36.078,0,0,0-8.86-6.174,6.613,6.613,0,0,0-7.6,1.275l-.522.526a29.49,29.49,0,0,1,3.048.965,29.747,29.747,0,0,1,10.68,7,31.015,31.015,0,0,0-2.294,3.348A34.755,34.755,0,0,0,4601.011-1233.05Z" transform="translate(-4386.627 3.303)" fill="#fff"/><path d="M4411.335-1257.539a1.059,1.059,0,0,0-.31-.77,1,1,0,0,0-.75-.318.984.984,0,0,0-.733.318,1.059,1.059,0,0,0-.312.77,1.066,1.066,0,0,0,.312.77,1,1,0,0,0,.733.318,1.016,1.016,0,0,0,.75-.318A1.066,1.066,0,0,0,4411.335-1257.539Z" transform="translate(-4403.413 1.62)" fill="#fff"/><path d="M4409.056-1257.539a1.055,1.055,0,0,0-.309-.77,1,1,0,0,0-.749-.318,1,1,0,0,0-.751.318,1.058,1.058,0,0,0-.311.77,1.065,1.065,0,0,0,.311.77,1.016,1.016,0,0,0,.751.318,1.015,1.015,0,0,0,.749-.318A1.062,1.062,0,0,0,4409.056-1257.539Z" transform="translate(-4403.614 1.62)" fill="#fff"/><path d="M4408.733-1258.233h1.615a4.96,4.96,0,0,0,2.986-.853,3.914,3.914,0,0,0,1.631-3.147h5.254a1.711,1.711,0,0,0,1.386-.686h.034l.619.686h10.833a1.714,1.714,0,0,0,1.389-.685h.033l.538.685h6.249l.457-.568h.032a3.181,3.181,0,0,0,2.416,1.07,2.545,2.545,0,0,0,2.121-1.037,1.688,1.688,0,0,0,1.257.535h6.657a1.607,1.607,0,0,0,1.321-.636,1.765,1.765,0,0,0,.441-1.2v-10.14h-1.975v9.856a.384.384,0,0,1-.114.284.416.416,0,0,1-.311.135h-5.449a.4.4,0,0,1-.293-.134.543.543,0,0,1-.081-.285v-2.677a2.868,2.868,0,0,0-1.078-2.41,3.644,3.644,0,0,0-2.267-.67,3.668,3.668,0,0,0-2.546.937,3.939,3.939,0,0,0-1.191,3.063,5.771,5.771,0,0,0,.391,2.175h-6.232v-2.041a3.985,3.985,0,0,0-1.094-2.879,4.186,4.186,0,0,0-3.181-1.271,9.538,9.538,0,0,0-2.823.485v1.623a12.014,12.014,0,0,1,2.415-.369,2.739,2.739,0,0,1,1.95.695,2.389,2.389,0,0,1,.741,1.832v1.506a.365.365,0,0,1-.408.418h-10.475v-10.275h-1.973v9.856a.584.584,0,0,1-.1.284.431.431,0,0,1-.325.135h-8.5v.635l.848,1.071h1.012a2.231,2.231,0,0,1-1.027,1.857,4.877,4.877,0,0,1-2.382.435,4.243,4.243,0,0,1-2.668-.643,2.767,2.767,0,0,1-.775-2.235v-2.326h-.979l-1.011.82v1.691a4.079,4.079,0,0,0,1.354,3.312A4.754,4.754,0,0,0,4408.733-1258.233Zm34.419-9.555a1.532,1.532,0,0,1,1.282-.636,1.241,1.241,0,0,1,.979.385,1.38,1.38,0,0,1,.375,1v2.911a1.934,1.934,0,0,1-1.37.685,1.459,1.459,0,0,1-1.256-.735,3.38,3.38,0,0,1-.49-1.907A2.767,2.767,0,0,1,4443.153-1267.788Z" transform="translate(-4403.862 0.256)" fill="#fff"/><path d="M4456.022-1262.651v-11.562h-1.992v12.4h.979Z" transform="translate(-4399.492 0.256)" fill="#fff"/><path d="M4463.9-1259.515a4.874,4.874,0,0,0,3.117.954h1.615a5.883,5.883,0,0,0,2.889-.652,2.945,2.945,0,0,0,1.648-2.778,2.708,2.708,0,0,0-.783-1.992,5.833,5.833,0,0,0-2.139-1.2,4.9,4.9,0,0,1-1.549-.795,1.382,1.382,0,0,1-.375-1.046,1.74,1.74,0,0,1,.522-1.339,2.051,2.051,0,0,1,1.452-.485,6.328,6.328,0,0,1,1.568.235v-1.54a6.2,6.2,0,0,0-1.91-.3,3.816,3.816,0,0,0-2.463.736,3.24,3.24,0,0,0-1.095,2.678,3.122,3.122,0,0,0,.719,2.159,4.969,4.969,0,0,0,2.22,1.238,4.359,4.359,0,0,1,1.484.7,1.233,1.233,0,0,1,.392.97q0,1.724-3.166,1.724a4.779,4.779,0,0,1-2.863-.636,2.726,2.726,0,0,1-.808-2.259v-2.326h-.979l-1.012.82v1.691A4.085,4.085,0,0,0,4463.9-1259.515Z" transform="translate(-4398.761 0.584)" fill="#fff"/><path d="M4477.651-1262.233H4479q-.245,2.292-2.921,2.292a7.293,7.293,0,0,1-1.256-.118v.737l.832,1.054h.049c.3.022.539.034.7.034a6.429,6.429,0,0,0,1.5-.185,4.2,4.2,0,0,0,1.875-.988,3.981,3.981,0,0,0,1.24-2.827h6.479a1.707,1.707,0,0,0,1.385-.686h.034l.6.686h10.85a1.709,1.709,0,0,0,1.387-.685h.035l.538.685h3.344l.457-.568h.033a3.178,3.178,0,0,0,2.415,1.07,2.543,2.543,0,0,0,2.12-1.037,1.691,1.691,0,0,0,1.258.535h6.656a1.607,1.607,0,0,0,1.321-.636,1.762,1.762,0,0,0,.441-1.2v-10.14h-1.974v9.856a.39.39,0,0,1-.115.284.418.418,0,0,1-.312.135h-5.448a.4.4,0,0,1-.292-.134.523.523,0,0,1-.083-.285v-2.677a2.87,2.87,0,0,0-1.077-2.41,3.65,3.65,0,0,0-2.267-.67,3.669,3.669,0,0,0-2.547.937,3.932,3.932,0,0,0-1.191,3.063,5.733,5.733,0,0,0,.392,2.175h-3.328v-2.041a3.991,3.991,0,0,0-1.093-2.879,4.192,4.192,0,0,0-3.183-1.271,9.535,9.535,0,0,0-2.822.485v1.623a11.994,11.994,0,0,1,2.414-.369,2.735,2.735,0,0,1,1.95.695,2.391,2.391,0,0,1,.743,1.832v1.506a.365.365,0,0,1-.408.418h-10.474v-5.991H4487.3v5.523a.43.43,0,0,1-.149.334.376.376,0,0,1-.327.135h-5.775v-3.1a2.9,2.9,0,0,0-1.174-2.476,3.642,3.642,0,0,0-2.122-.619,3.743,3.743,0,0,0-2.758,1.071,4.015,4.015,0,0,0-1.028,2.927,4.073,4.073,0,0,0,.865,2.644A3.455,3.455,0,0,0,4477.651-1262.233Zm29.884-5.555a1.531,1.531,0,0,1,1.282-.636,1.24,1.24,0,0,1,.978.385,1.376,1.376,0,0,1,.375,1v2.911a1.932,1.932,0,0,1-1.37.685,1.459,1.459,0,0,1-1.256-.735,3.392,3.392,0,0,1-.489-1.907A2.767,2.767,0,0,1,4507.535-1267.788Zm-31.108-.033a1.616,1.616,0,0,1,1.322-.6,1.282,1.282,0,0,1,.881.335,1.351,1.351,0,0,1,.425,1.054v3.1h-1.109a1.872,1.872,0,0,1-1.469-.6,2.346,2.346,0,0,1-.538-1.624A2.557,2.557,0,0,1,4476.427-1267.822Z" transform="translate(-4397.747 0.256)" fill="#fff"/><path d="M4487.34-1271.5a1,1,0,0,0,.75-.319,1.034,1.034,0,0,0,.31-.752,1.051,1.051,0,0,0-.31-.769,1,1,0,0,0-.75-.319.986.986,0,0,0-.733.319,1.058,1.058,0,0,0-.311.769,1.04,1.04,0,0,0,.311.752A.982.982,0,0,0,4487.34-1271.5Z" transform="translate(-4396.667 0.305)" fill="#fff"/><path d="M4485.063-1271.5a1,1,0,0,0,.75-.319,1.043,1.043,0,0,0,.31-.752,1.06,1.06,0,0,0-.31-.769,1.007,1.007,0,0,0-.75-.319,1.01,1.01,0,0,0-.752.319,1.065,1.065,0,0,0-.311.769,1.048,1.048,0,0,0,.311.752A1.006,1.006,0,0,0,4485.063-1271.5Z" transform="translate(-4396.868 0.305)" fill="#fff"/><path d="M4520.845-1262.651v-11.562h-1.991v12.4h.978Z" transform="translate(-4393.817 0.256)" fill="#fff"/><path d="M4532.614-1271.5a1.01,1.01,0,0,0,.751-.318,1.042,1.042,0,0,0,.31-.753,1.062,1.062,0,0,0-.31-.77,1.011,1.011,0,0,0-.751-.319.993.993,0,0,0-.735.319,1.066,1.066,0,0,0-.31.77,1.046,1.046,0,0,0,.31.753A.992.992,0,0,0,4532.614-1271.5Z" transform="translate(-4392.706 0.304)" fill="#fff"/><path d="M4530.334-1271.5a1.009,1.009,0,0,0,.75-.318,1.039,1.039,0,0,0,.31-.753,1.059,1.059,0,0,0-.31-.77,1.01,1.01,0,0,0-.75-.319,1.009,1.009,0,0,0-.75.319,1.063,1.063,0,0,0-.311.77,1.043,1.043,0,0,0,.311.753A1.008,1.008,0,0,0,4530.334-1271.5Z" transform="translate(-4392.906 0.304)" fill="#fff"/><path d="M4542.019-1271.946v-.418h-1.092a.682.682,0,0,1-.6-.285.838.838,0,0,1-.163-.518q0-.8.718-.8a2.618,2.618,0,0,1,.6.1v-.888a2.655,2.655,0,0,0-.832-.134,1.476,1.476,0,0,0-1.108.419,1.585,1.585,0,0,0-.41,1.155,1.869,1.869,0,0,0,.262.954h-.636v.9h2.888Z" transform="translate(-4392.076 0.197)" fill="#fff"/><path d="M4549.058-1260.216a1.066,1.066,0,0,0,.311-.77,1.063,1.063,0,0,0-.311-.77,1.007,1.007,0,0,0-.75-.317.983.983,0,0,0-.734.317,1.058,1.058,0,0,0-.31.77,1.061,1.061,0,0,0,.31.77.99.99,0,0,0,.734.318A1.014,1.014,0,0,0,4549.058-1260.216Z" transform="translate(-4391.331 1.319)" fill="#fff"/><path d="M4546.777-1260.216a1.066,1.066,0,0,0,.311-.77,1.063,1.063,0,0,0-.311-.77,1,1,0,0,0-.751-.317,1,1,0,0,0-.75.317,1.064,1.064,0,0,0-.31.77,1.067,1.067,0,0,0,.31.77,1.012,1.012,0,0,0,.75.318A1.009,1.009,0,0,0,4546.777-1260.216Z" transform="translate(-4391.532 1.319)" fill="#fff"/><path d="M4562.367-1270.875a8.839,8.839,0,0,0-3.639.837v1.155a2.543,2.543,0,0,0-1.125.936,3.242,3.242,0,0,0-.491,1.774,3.368,3.368,0,0,0,.165,1.088,2.884,2.884,0,0,0,.406.854h-6.541v-5.991h-1.977v5.522a.429.429,0,0,1-.145.334.374.374,0,0,1-.326.135h-6.086v-5.991h-1.975v5.522a.425.425,0,0,1-.147.334.376.376,0,0,1-.327.135h-5.71a.323.323,0,0,1-.261-.117.383.383,0,0,1-.114-.3v-6.024h-.98l-.7.552a4.234,4.234,0,0,0-1.7-.369,3.408,3.408,0,0,0-2.56,1.088,4.223,4.223,0,0,0-1.143,3.029,4.2,4.2,0,0,0,1.24,3.18,3.2,3.2,0,0,0,2.219.836,3.131,3.131,0,0,0,2.073-.786,1.849,1.849,0,0,0,1.354.619h6.967a1.71,1.71,0,0,0,1.387-.686h.033l.6.686h6.511a1.709,1.709,0,0,0,1.387-.686h.034l.6.686h7.293a2.828,2.828,0,0,0,1.208-.184h.066a2.827,2.827,0,0,0,1.207.184h3.965a1.626,1.626,0,0,0,1.208-.518,1.838,1.838,0,0,0,.555-1.323v-1.674a5.184,5.184,0,0,0-1.028-3.363A4.273,4.273,0,0,0,4562.367-1270.875Zm-30.284,6.576a3.149,3.149,0,0,1-1.223.269,1.683,1.683,0,0,1-1.38-.636,2.611,2.611,0,0,1-.514-1.69,2.518,2.518,0,0,1,.572-1.715,1.832,1.832,0,0,1,1.452-.661,3.071,3.071,0,0,1,1.093.218Zm28.7-.651a1.128,1.128,0,0,1-.864.518,1.2,1.2,0,0,1-.915-.569,2.36,2.36,0,0,1-.293-1.1,2.174,2.174,0,0,1,.228-1.021,1.055,1.055,0,0,1,.98-.6,1.053,1.053,0,0,1,.832.4,1.828,1.828,0,0,1,.359,1.221A2.217,2.217,0,0,1,4560.785-1264.95Zm4.128.3a.436.436,0,0,1-.131.318.429.429,0,0,1-.293.1H4562.2a3.15,3.15,0,0,0,.408-.9,3.582,3.582,0,0,0,.146-1.039,2.95,2.95,0,0,0-.685-2.008,2.667,2.667,0,0,0-1.7-.9,6.7,6.7,0,0,1,1.452-.167,3.058,3.058,0,0,1,2.284.77,3.828,3.828,0,0,1,.8,2.71Z" transform="translate(-4393.105 0.548)" fill="#fff"/><path d="M4409.446-1250.985a.994.994,0,0,0,.743-.318,1.05,1.05,0,0,0,.307-.754,1.067,1.067,0,0,0-.307-.769,1,1,0,0,0-.743-.319.977.977,0,0,0-.727.319,1.061,1.061,0,0,0-.307.769,1.044,1.044,0,0,0,.307.754A.975.975,0,0,0,4409.446-1250.985Z" transform="translate(-4403.484 2.1)" fill="#fff"/><path d="M4407.306-1241.858a3.083,3.083,0,0,0,2.052-.786,1.825,1.825,0,0,0,1.341.62h6.9a1.691,1.691,0,0,0,1.372-.686H4419l.6.686h6.4a1.683,1.683,0,0,0,1.261-.536,2.5,2.5,0,0,0,2.116,1.039,3,3,0,0,0,2.473-1.222,4.964,4.964,0,0,0,.984-3.163,3.961,3.961,0,0,0-1.244-3.129,3.51,3.51,0,0,0-2.406-.87,3.587,3.587,0,0,0-2.295.669,2.857,2.857,0,0,0-1.066,2.41v2.678a.4.4,0,0,1-.113.285.412.412,0,0,1-.307.134h-6.057v-5.991h-1.957v5.521a.435.435,0,0,1-.145.335.371.371,0,0,1-.321.135h-5.656a.318.318,0,0,1-.258-.118.376.376,0,0,1-.113-.3v-6.024h-.97l-.694.552a4.152,4.152,0,0,0-1.68-.369,3.365,3.365,0,0,0-2.537,1.088,4.253,4.253,0,0,0-1.131,3.029,4.219,4.219,0,0,0,1.228,3.18A3.155,3.155,0,0,0,4407.306-1241.858Zm20.469-4.97a1.318,1.318,0,0,1,.387-1,1.166,1.166,0,0,1,.921-.385,1.565,1.565,0,0,1,1.261.585,3.019,3.019,0,0,1,.533,1.891,3.071,3.071,0,0,1-.486,1.8,1.46,1.46,0,0,1-1.244.7,1.8,1.8,0,0,1-1.373-.67Zm-21.374-.744a1.807,1.807,0,0,1,1.437-.661,3.023,3.023,0,0,1,1.083.217v4.216a3.094,3.094,0,0,1-1.211.268,1.656,1.656,0,0,1-1.365-.635,2.626,2.626,0,0,1-.509-1.69A2.544,2.544,0,0,1,4406.4-1247.572Z" transform="translate(-4403.881 2.36)" fill="#fff"/><path d="M4407.189-1253.144a.994.994,0,0,0-.743.319,1.067,1.067,0,0,0-.307.769,1.05,1.05,0,0,0,.307.754.993.993,0,0,0,.743.318,1,1,0,0,0,.744-.318,1.051,1.051,0,0,0,.306-.754,1.068,1.068,0,0,0-.306-.769A1,1,0,0,0,4407.189-1253.144Z" transform="translate(-4403.683 2.1)" fill="#fff"/><path d="M4417.958-1239.7a1.07,1.07,0,0,0,.308-.77,1.073,1.073,0,0,0-.308-.77,1,1,0,0,0-.744-.318.98.98,0,0,0-.726.318,1.063,1.063,0,0,0-.307.77,1.061,1.061,0,0,0,.307.77.977.977,0,0,0,.726.318A1,1,0,0,0,4417.958-1239.7Z" transform="translate(-4402.804 3.114)" fill="#fff"/><path d="M4414.96-1239.383a1,1,0,0,0,.743-.318,1.068,1.068,0,0,0,.306-.77,1.071,1.071,0,0,0-.306-.77,1,1,0,0,0-.743-.318,1,1,0,0,0-.745.318,1.071,1.071,0,0,0-.306.77,1.068,1.068,0,0,0,.306.77A1,1,0,0,0,4414.96-1239.383Z" transform="translate(-4403.004 3.114)" fill="#fff"/><path d="M4461.193-1241.7h5.88a1.589,1.589,0,0,0,1.31-.636,1.775,1.775,0,0,0,.435-1.2v-10.14h-1.954v9.856a.4.4,0,0,1-.113.284.417.417,0,0,1-.308.135h-5.784v-2.041a4.012,4.012,0,0,0-1.082-2.879,4.125,4.125,0,0,0-3.151-1.271,9.361,9.361,0,0,0-2.793.485v1.624a11.781,11.781,0,0,1,2.39-.369,2.7,2.7,0,0,1,1.93.695,2.4,2.4,0,0,1,.735,1.832v1.505c0,.279-.134.419-.4.419H4451.1v-.234a6.382,6.382,0,0,0-1.1-3.632,6.634,6.634,0,0,0-3.361-2.61l3.377-2.141v-1.891l-5.735,3.431v1.89c0,.089.039.134.115.134a5.218,5.218,0,0,1,3.763,2.009,5.012,5.012,0,0,1,.985,2.61c0,.29-.141.435-.419.435h-9.694v-3.1a2.91,2.91,0,0,0-1.162-2.476,3.582,3.582,0,0,0-2.1-.62,3.686,3.686,0,0,0-2.729,1.071,4.041,4.041,0,0,0-1.018,2.929,4.1,4.1,0,0,0,.856,2.644,3.4,3.4,0,0,0,2.8,1.255h1.339q-.24,2.292-2.89,2.292a7.115,7.115,0,0,1-1.244-.118v.736l.824,1.054h.046c.3.023.536.034.7.034a6.344,6.344,0,0,0,1.486-.184,4.142,4.142,0,0,0,1.858-.987,4,4,0,0,0,1.228-2.828h10.339a1.726,1.726,0,0,0,1.375-.686h.031l.549.686h7.61a1.7,1.7,0,0,0,1.375-.686h.032l.533.686h.339Zm-24.136-1.707h-1.1a1.835,1.835,0,0,1-1.452-.6,2.357,2.357,0,0,1-.536-1.623,2.58,2.58,0,0,1,.486-1.657,1.6,1.6,0,0,1,1.309-.6,1.257,1.257,0,0,1,.872.335,1.36,1.36,0,0,1,.42,1.054Z" transform="translate(-4401.418 2.033)" fill="#fff"/><path d="M4467.907-1241.3h.969l1-.837V-1253.7h-1.971Z" transform="translate(-4398.277 2.052)" fill="#fff"/><path d="M4475.5-1248.554l-1,.836v2.645a2.915,2.915,0,0,0,1.018,2.308,2.563,2.563,0,0,0,1.809.7h9.047a1.618,1.618,0,0,0,1.324-.652,1.758,1.758,0,0,0,.42-1.189v-5.856h-1.97v5.573a.365.365,0,0,1-.4.419h-8.029a1.213,1.213,0,0,1-.855-.351,1.259,1.259,0,0,1-.388-.954v-3.481Z" transform="translate(-4397.7 2.396)" fill="#fff"/><path d="M4480.469-1248.318a1.067,1.067,0,0,0,.307-.769,1.073,1.073,0,0,0-.307-.77,1,1,0,0,0-.743-.319.978.978,0,0,0-.728.319,1.072,1.072,0,0,0-.306.77,1.066,1.066,0,0,0,.306.769.974.974,0,0,0,.728.319A.992.992,0,0,0,4480.469-1248.318Z" transform="translate(-4397.334 2.36)" fill="#fff"/><path d="M4482.726-1248.318a1.059,1.059,0,0,0,.308-.769,1.065,1.065,0,0,0-.308-.77.974.974,0,0,0-.726-.319,1,1,0,0,0-.744.319,1.072,1.072,0,0,0-.307.77,1.066,1.066,0,0,0,.307.769.994.994,0,0,0,.744.319A.969.969,0,0,0,4482.726-1248.318Z" transform="translate(-4397.135 2.36)" fill="#fff"/><path d="M4499.662-1241.24a1.066,1.066,0,0,0-.308.77,1.064,1.064,0,0,0,.308.77.989.989,0,0,0,.741.318.969.969,0,0,0,.736-.318,1.083,1.083,0,0,0,.3-.77,1.086,1.086,0,0,0-.3-.77.972.972,0,0,0-.736-.318A.992.992,0,0,0,4499.662-1241.24Z" transform="translate(-4395.524 3.114)" fill="#fff"/><path d="M4497.509-1241.717h3.116a1.662,1.662,0,0,0,1.326-.636,1.96,1.96,0,0,0,.42-1.2v-5.857h-1.957v5.573a.386.386,0,0,1-.113.284.413.413,0,0,1-.307.135h-8.546a.339.339,0,0,1-.306-.151.37.37,0,0,1-.1-.268v-9.856h-1.971v10.14a1.8,1.8,0,0,0,.582,1.356,1.623,1.623,0,0,0,1.164.485h6.689Z" transform="translate(-4396.424 2.052)" fill="#fff"/><path d="M4497.4-1241.24a1.069,1.069,0,0,0-.306.77,1.066,1.066,0,0,0,.306.77.977.977,0,0,0,.726.318,1,1,0,0,0,.745-.318,1.07,1.07,0,0,0,.308-.77,1.073,1.073,0,0,0-.308-.77,1,1,0,0,0-.745-.318A.98.98,0,0,0,4497.4-1241.24Z" transform="translate(-4395.722 3.114)" fill="#fff"/><path d="M4513.091-1251.3a1.043,1.043,0,0,0,.308-.753,1.071,1.071,0,0,0-.308-.77.993.993,0,0,0-.743-.318,1,1,0,0,0-.743.318,1.072,1.072,0,0,0-.306.77,1.044,1.044,0,0,0,.306.753,1,1,0,0,0,.743.319A.994.994,0,0,0,4513.091-1251.3Z" transform="translate(-4394.479 2.1)" fill="#fff"/><path d="M4515.349-1251.3a1.044,1.044,0,0,0,.307-.753,1.072,1.072,0,0,0-.307-.77.992.992,0,0,0-.743-.318.977.977,0,0,0-.728.318,1.068,1.068,0,0,0-.307.77,1.041,1.041,0,0,0,.307.753.978.978,0,0,0,.728.319A.993.993,0,0,0,4515.349-1251.3Z" transform="translate(-4394.281 2.1)" fill="#fff"/><path d="M4523.487-1247.49h-1.972v3.649c0,.278-.134.419-.4.419h-4.669v-5.991h-1.955v5.522a.43.43,0,0,1-.146.335.371.371,0,0,1-.322.135h-6.027v-5.991h-1.97v7.112a2.537,2.537,0,0,1-2.86,2.878,6.29,6.29,0,0,1-1-.084v.719l.792,1.021c.227.011.436.017.63.017a4.575,4.575,0,0,0,2.86-.888,3.982,3.982,0,0,0,1.535-3.079h6.721a1.692,1.692,0,0,0,1.372-.686h.032l.6.686h5.041a1.645,1.645,0,0,0,1.355-.686h.049l.533.686h3.473a1.651,1.651,0,0,0,1.357-.686h.047l.534.686h3.457a1.69,1.69,0,0,0,1.373-.686h.033l.534.686h6.479l.452-.57h.033a3.128,3.128,0,0,0,2.391,1.071,2.512,2.512,0,0,0,2.1-1.037,1.668,1.668,0,0,0,1.244.536h6.591a1.591,1.591,0,0,0,1.31-.636,1.778,1.778,0,0,0,.436-1.2v-10.14h-1.955v9.856a.393.393,0,0,1-.114.284.413.413,0,0,1-.307.135h-5.4a.393.393,0,0,1-.29-.134.538.538,0,0,1-.081-.285v-2.678a2.879,2.879,0,0,0-1.067-2.409,3.587,3.587,0,0,0-2.246-.669,3.606,3.606,0,0,0-2.521.936,3.959,3.959,0,0,0-1.179,3.062,5.825,5.825,0,0,0,.388,2.175H4534.3v-5.991h-1.97v5.573a.365.365,0,0,1-.405.419h-3.036v-.269c.01-.134.015-.233.015-.3v-4.469h-1.971v4.619a.364.364,0,0,1-.4.419h-3.054c.011-.112.016-.284.016-.52Zm19.313.219a1.507,1.507,0,0,1,1.269-.636,1.227,1.227,0,0,1,.97.385,1.382,1.382,0,0,1,.372,1v2.913a1.914,1.914,0,0,1-1.358.685,1.444,1.444,0,0,1-1.243-.735,3.413,3.413,0,0,1-.485-1.909A2.779,2.779,0,0,1,4542.8-1247.272Z" transform="translate(-4395.278 2.052)" fill="#fff"/><path d="M4525.935-1253a.905.905,0,0,0,.678-.285.975.975,0,0,0,.275-.7,1,1,0,0,0-.275-.71.888.888,0,0,0-.678-.293.911.911,0,0,0-.687.293.979.979,0,0,0-.283.71.953.953,0,0,0,.283.7A.929.929,0,0,0,4525.935-1253Z" transform="translate(-4393.283 1.938)" fill="#fff"/><path d="M4524.811-1250.985a.98.98,0,0,0,.735-.31,1.054,1.054,0,0,0,.3-.761,1.087,1.087,0,0,0-.3-.77.967.967,0,0,0-.735-.318.97.97,0,0,0-.735.318,1.088,1.088,0,0,0-.3.77,1.054,1.054,0,0,0,.3.761A.983.983,0,0,0,4524.811-1250.985Z" transform="translate(-4393.387 2.1)" fill="#fff"/><path d="M4526.02-1252.057a1.037,1.037,0,0,0,.307.753.977.977,0,0,0,.727.319,1,1,0,0,0,.744-.319,1.052,1.052,0,0,0,.306-.753,1.08,1.08,0,0,0-.306-.77,1,1,0,0,0-.744-.318.976.976,0,0,0-.727.318A1.064,1.064,0,0,0,4526.02-1252.057Z" transform="translate(-4393.191 2.1)" fill="#fff"/><path d="M4555.25-1253.7h-1.97v12.4h.969l1-.837Z" transform="translate(-4390.805 2.052)" fill="#fff"/><path d="M4559.146-1239.753a6.41,6.41,0,0,1-1.019-.084v.719l.792,1.021c.26.022.447.034.565.034a5.546,5.546,0,0,0,1.26-.134,4.3,4.3,0,0,0,1.891-.938,4.157,4.157,0,0,0,1.325-3.314v-4.4a2.821,2.821,0,0,0-1.1-2.41,3.4,3.4,0,0,0-2.165-.686,3.516,3.516,0,0,0-2.762,1.139,3.962,3.962,0,0,0-.986,2.794,4.392,4.392,0,0,0,.873,2.728,3.354,3.354,0,0,0,2.778,1.372,4.881,4.881,0,0,0,1.357-.2Q4561.745-1239.754,4559.146-1239.753Zm1.777-3.882a1.854,1.854,0,0,1-1.479-.628,2.536,2.536,0,0,1-.541-1.715,2.616,2.616,0,0,1,.477-1.657,1.586,1.586,0,0,1,1.316-.6,1.2,1.2,0,0,1,.824.284,1.353,1.353,0,0,1,.469,1.1v3.011A3.1,3.1,0,0,1,4560.923-1243.635Z" transform="translate(-4390.483 2.38)" fill="#fff"/><path d="M4410.812-1225.329h-4.477v-8.15h-1.92v9.84h6.4Z" transform="translate(-4403.833 3.822)" fill="#fff"/><path d="M4410.814-1227.475a4.149,4.149,0,0,0,.8,2.652,3.164,3.164,0,0,0,2.625,1.141,3.27,3.27,0,0,0,2.389-.88,3.907,3.907,0,0,0,1.031-2.914,4.091,4.091,0,0,0-.8-2.638,3.152,3.152,0,0,0-2.624-1.154,3.247,3.247,0,0,0-2.39.893A3.893,3.893,0,0,0,4410.814-1227.475Zm2.246-1.641a1.374,1.374,0,0,1,1.175-.626,1.388,1.388,0,0,1,1.123.55,2.666,2.666,0,0,1,.509,1.717,2.744,2.744,0,0,1-.45,1.642,1.391,1.391,0,0,1-1.182.625,1.4,1.4,0,0,1-1.123-.536,2.726,2.726,0,0,1-.5-1.731A2.768,2.768,0,0,1,4413.06-1229.116Z" transform="translate(-4403.274 4.015)" fill="#fff"/><path d="M4423.107-1224.341a3,3,0,0,0,1.044-2.131h-1.71a2.108,2.108,0,0,1-.464.982,1.116,1.116,0,0,1-.828.3,1.2,1.2,0,0,1-1.065-.6,2.987,2.987,0,0,1-.385-1.628,3.933,3.933,0,0,1,.338-1.719,1.157,1.157,0,0,1,1.124-.6,1.133,1.133,0,0,1,.829.289,2.024,2.024,0,0,1,.45,1h1.71a3.141,3.141,0,0,0-.784-1.979,2.91,2.91,0,0,0-2.192-.837,3.023,3.023,0,0,0-2.3.893,4.158,4.158,0,0,0-.979,3,4.145,4.145,0,0,0,.744,2.6,2.941,2.941,0,0,0,2.494,1.112A2.952,2.952,0,0,0,4423.107-1224.341Z" transform="translate(-4402.655 4.015)" fill="#fff"/><path d="M4425.363-1227.722a2.048,2.048,0,0,0-1.044,1.952,2.007,2.007,0,0,0,.5,1.442,2.129,2.129,0,0,0,1.619.646,2.518,2.518,0,0,0,2.089-.894,1.273,1.273,0,0,0,.208.743h1.959v-.482a.615.615,0,0,1-.417-.646v-4.067a2.121,2.121,0,0,0-.614-1.662,3.42,3.42,0,0,0-2.22-.577q-2.794,0-2.95,2.514h1.722a1.114,1.114,0,0,1,.333-.775,1.53,1.53,0,0,1,.934-.214q1.031,0,1.044.729l.013.523-1.409.274A6.723,6.723,0,0,0,4425.363-1227.722Zm3.172.37-.013.537q-.04,1.607-1.436,1.608c-.646,0-.967-.261-.967-.785a.887.887,0,0,1,.261-.646,1.848,1.848,0,0,1,.836-.4Z" transform="translate(-4402.093 4.015)" fill="#fff"/><rect width="1.802" height="9.84" transform="translate(29.773 -1229.658)" fill="#fff"/><path d="M4442.089-1225.674a2.031,2.031,0,0,1-1.435.494,2.024,2.024,0,0,1-1.659-.755,4.018,4.018,0,0,1-.7-2.558,4.449,4.449,0,0,1,.559-2.377,2.1,2.1,0,0,1,1.869-1.016,1.9,1.9,0,0,1,2,1.7h1.829a3.627,3.627,0,0,0-.628-1.912,3.8,3.8,0,0,0-3.277-1.524,3.874,3.874,0,0,0-2.963,1.208,5.4,5.4,0,0,0-1.3,3.876,5.743,5.743,0,0,0,.991,3.517,3.8,3.8,0,0,0,3.239,1.54,4.093,4.093,0,0,0,2.676-.852,3.6,3.6,0,0,0,1.3-2.762h-1.866A2.137,2.137,0,0,1,4442.089-1225.674Z" transform="translate(-4401.038 3.809)" fill="#fff"/><path d="M4450.758-1230.113a3.147,3.147,0,0,0-2.623-1.154,3.248,3.248,0,0,0-2.389.893,3.889,3.889,0,0,0-1.031,2.9,4.144,4.144,0,0,0,.8,2.652,3.165,3.165,0,0,0,2.625,1.141,3.275,3.275,0,0,0,2.39-.88,3.917,3.917,0,0,0,1.031-2.914A4.075,4.075,0,0,0,4450.758-1230.113Zm-1.44,4.28a1.391,1.391,0,0,1-1.182.625,1.394,1.394,0,0,1-1.123-.536,2.723,2.723,0,0,1-.5-1.731,2.775,2.775,0,0,1,.444-1.641,1.375,1.375,0,0,1,1.175-.626,1.389,1.389,0,0,1,1.124.55,2.664,2.664,0,0,1,.509,1.717A2.748,2.748,0,0,1,4449.317-1225.833Z" transform="translate(-4400.307 4.015)" fill="#fff"/><path d="M4456.034-1231.267a2.292,2.292,0,0,0-2.062,1.182v-1.031h-1.8v7.283h1.8v-4.4a1.4,1.4,0,0,1,.391-1.039,1.413,1.413,0,0,1,1.043-.392q1.162,0,1.162,1.306v4.521h1.788v-4.906a2.8,2.8,0,0,0-.521-1.787A2.2,2.2,0,0,0,4456.034-1231.267Z" transform="translate(-4399.654 4.015)" fill="#fff"/><path d="M4461.4-1223.509a3.708,3.708,0,0,0,1.724-.425l-.209-1.292a.392.392,0,0,0-.065.041,1.781,1.781,0,0,1-.77.247.663.663,0,0,1-.5-.151.833.833,0,0,1-.136-.55v-4.054h1.212v-1.25h-1.212v-2.3l-1.8,1.086v1.209h-.886v1.25h.886v4.48A1.533,1.533,0,0,0,4461.4-1223.509Z" transform="translate(-4399.078 3.842)" fill="#fff"/><path d="M4469.845-1227.324a5.534,5.534,0,0,0-.275-1.855,2.98,2.98,0,0,0-1.136-1.539,3.176,3.176,0,0,0-1.853-.549,2.915,2.915,0,0,0-2.233.906,4.28,4.28,0,0,0-.966,3,4.127,4.127,0,0,0,.744,2.57,2.868,2.868,0,0,0,2.428,1.114,3.388,3.388,0,0,0,2.031-.625,3.032,3.032,0,0,0,1.168-1.7h-1.776a1.309,1.309,0,0,1-1.344.88,1.3,1.3,0,0,1-1.189-.6,2.842,2.842,0,0,1-.261-1.25h4.648C4469.84-1227.117,4469.845-1227.231,4469.845-1227.324Zm-4.635-.907q.169-1.594,1.358-1.594,1.266,0,1.4,1.594Z" transform="translate(-4398.673 4.015)" fill="#fff"/><path d="M4472.23-1228.23a1.405,1.405,0,0,1,.392-1.039,1.414,1.414,0,0,1,1.043-.392q1.163,0,1.164,1.306v4.521h1.787v-4.906a2.8,2.8,0,0,0-.522-1.787,2.2,2.2,0,0,0-1.8-.742,2.3,2.3,0,0,0-2.062,1.182v-1.031h-1.8v7.283h1.8Z" transform="translate(-4398.057 4.015)" fill="#fff"/><path d="M4481.17-1225.226a.437.437,0,0,0-.065.041,1.768,1.768,0,0,1-.77.247.664.664,0,0,1-.5-.151.83.83,0,0,1-.136-.55v-4.054h1.214v-1.25H4479.7v-2.3l-1.8,1.086v1.209h-.888v1.25h.888v4.48a1.532,1.532,0,0,0,1.761,1.7,3.7,3.7,0,0,0,1.724-.425Z" transform="translate(-4397.48 3.842)" fill="#fff"/><path d="M4490.33-1223.634h2.076l-1.71-2.226a4.513,4.513,0,0,0,.887-2.818v-.137h-1.462a1.317,1.317,0,0,1,.014.178,3.319,3.319,0,0,1-.392,1.512l-1.489-1.951a4.384,4.384,0,0,0,1.182-1.133,2.344,2.344,0,0,0,.32-1.258,1.968,1.968,0,0,0-.548-1.429,2.334,2.334,0,0,0-1.736-.646,2.524,2.524,0,0,0-1.645.563,2.124,2.124,0,0,0-.784,1.7,1.912,1.912,0,0,0,.2.873,7.53,7.53,0,0,0,.861,1.2,4.711,4.711,0,0,0-1.567,1.238,2.654,2.654,0,0,0-.444,1.58,2.854,2.854,0,0,0,.731,2.006,2.992,2.992,0,0,0,2.3.907,3,3,0,0,0,1.193-.227,6.074,6.074,0,0,0,1.313-.858Zm-2.859-8.451q.743,0,.743.783a1.336,1.336,0,0,1-.77,1.168l-.143-.193a2.184,2.184,0,0,1-.561-1.1Q4486.74-1232.085,4487.471-1232.085Zm-.3,7.036a1.255,1.255,0,0,1-.959-.482,1.59,1.59,0,0,1-.424-1.085,1.346,1.346,0,0,1,.562-1.073l.6-.412,1.75,2.323A2.759,2.759,0,0,1,4487.17-1225.048Z" transform="translate(-4396.861 3.816)" fill="#fff"/><path d="M4501.727-1225.028l.235,1.4h1.148v-5.36h-3.746v1.692h2.127a2.213,2.213,0,0,1-.457,1.194,2.364,2.364,0,0,1-1.906.893,2.338,2.338,0,0,1-1.827-.824,3.663,3.663,0,0,1-.849-2.54,3.986,3.986,0,0,1,.613-2.323,2.288,2.288,0,0,1,2-.99,2.159,2.159,0,0,1,2.246,1.525h1.8a3.391,3.391,0,0,0-1.122-2.255,4.223,4.223,0,0,0-2.924-1,4.2,4.2,0,0,0-3.12,1.236,5.2,5.2,0,0,0-1.41,3.848,5.491,5.491,0,0,0,1.082,3.462,3.977,3.977,0,0,0,3.3,1.6A3.208,3.208,0,0,0,4501.727-1225.028Z" transform="translate(-4395.947 3.809)" fill="#fff"/><path d="M4504.591-1230.374a3.892,3.892,0,0,0-1.029,2.9,4.152,4.152,0,0,0,.795,2.652,3.166,3.166,0,0,0,2.625,1.141,3.265,3.265,0,0,0,2.387-.88,3.906,3.906,0,0,0,1.032-2.914,4.088,4.088,0,0,0-.8-2.638,3.149,3.149,0,0,0-2.623-1.154A3.253,3.253,0,0,0,4504.591-1230.374Zm3.513,1.182a2.661,2.661,0,0,1,.511,1.717,2.741,2.741,0,0,1-.452,1.642,1.388,1.388,0,0,1-1.18.625,1.4,1.4,0,0,1-1.124-.536,2.729,2.729,0,0,1-.5-1.731,2.778,2.778,0,0,1,.445-1.641,1.373,1.373,0,0,1,1.176-.626A1.386,1.386,0,0,1,4508.1-1229.192Z" transform="translate(-4395.156 4.015)" fill="#fff"/><path d="M4513.81-1225.8l-1.488-5.332h-1.905l2.415,7.283h1.893l2.376-7.283h-1.88Z" transform="translate(-4394.556 4.027)" fill="#fff"/><path d="M4522.13-1230.718a3.183,3.183,0,0,0-1.854-.549,2.912,2.912,0,0,0-2.232.906,4.29,4.29,0,0,0-.966,3,4.127,4.127,0,0,0,.745,2.57,2.867,2.867,0,0,0,2.428,1.114,3.376,3.376,0,0,0,2.028-.625,3.027,3.027,0,0,0,1.17-1.7h-1.776a1.309,1.309,0,0,1-1.345.88,1.3,1.3,0,0,1-1.187-.6,2.815,2.815,0,0,1-.263-1.25h4.649c.009-.137.014-.251.014-.344a5.561,5.561,0,0,0-.274-1.855A2.981,2.981,0,0,0,4522.13-1230.718Zm-3.225,2.487q.168-1.594,1.359-1.594,1.266,0,1.4,1.594Z" transform="translate(-4393.973 4.015)" fill="#fff"/><path d="M4524.124-1231.116v7.283h1.8v-3.9a1.922,1.922,0,0,1,.393-1.388,1.711,1.711,0,0,1,1.227-.344,3.327,3.327,0,0,1,.68.07l-.014-1.869h-.354a1.785,1.785,0,0,0-1.932,1.538v-1.387Z" transform="translate(-4393.356 4.015)" fill="#fff"/><path d="M4533.051-1228.354v4.521h1.788v-4.906a2.8,2.8,0,0,0-.522-1.787,2.2,2.2,0,0,0-1.8-.742,2.3,2.3,0,0,0-2.062,1.182v-1.031h-1.8v7.283h1.8v-4.4a1.4,1.4,0,0,1,.392-1.039,1.415,1.415,0,0,1,1.044-.392Q4533.05-1229.66,4533.051-1228.354Z" transform="translate(-4392.96 4.015)" fill="#fff"/><path d="M4541.6-1223.833v-4.4a1.552,1.552,0,0,1,.327-1.052,1.126,1.126,0,0,1,.9-.379.852.852,0,0,1,.979.948v4.879h1.788v-5.181a2.28,2.28,0,0,0-.582-1.656,2.163,2.163,0,0,0-1.625-.6,2.4,2.4,0,0,0-2.023,1.071,1.921,1.921,0,0,0-1.881-1.071,2.339,2.339,0,0,0-1.892,1.031v-.88h-1.789v7.283h1.8v-4.4a1.555,1.555,0,0,1,.328-1.052,1.12,1.12,0,0,1,.9-.379.847.847,0,0,1,.969.948v4.879Z" transform="translate(-4392.334 4.015)" fill="#fff"/><path d="M4552.248-1226h-1.775a1.309,1.309,0,0,1-1.345.88,1.3,1.3,0,0,1-1.188-.6,2.842,2.842,0,0,1-.261-1.25h4.648c.008-.137.013-.251.013-.344a5.56,5.56,0,0,0-.274-1.855,2.978,2.978,0,0,0-1.137-1.539,3.176,3.176,0,0,0-1.853-.549,2.911,2.911,0,0,0-2.232.906,4.28,4.28,0,0,0-.966,3,4.127,4.127,0,0,0,.744,2.57,2.87,2.87,0,0,0,2.428,1.114,3.389,3.389,0,0,0,2.031-.625A3.03,3.03,0,0,0,4552.248-1226Zm-3.185-3.821q1.265,0,1.4,1.594h-2.754Q4547.874-1229.825,4549.063-1229.825Z" transform="translate(-4391.453 4.015)" fill="#fff"/><path d="M4557.324-1228.354v4.521h1.788v-4.906a2.8,2.8,0,0,0-.522-1.787,2.2,2.2,0,0,0-1.8-.742,2.293,2.293,0,0,0-2.062,1.182v-1.031h-1.8v7.283h1.8v-4.4a1.407,1.407,0,0,1,.391-1.039,1.416,1.416,0,0,1,1.044-.392Q4557.323-1229.66,4557.324-1228.354Z" transform="translate(-4390.836 4.015)" fill="#fff"/><path d="M4563.6-1225.185a1.783,1.783,0,0,1-.771.247.658.658,0,0,1-.5-.151.823.823,0,0,1-.139-.55v-4.054h1.216v-1.25h-1.216v-2.3l-1.8,1.086v1.209h-.887v1.25h.887v4.48a1.533,1.533,0,0,0,1.763,1.7,3.705,3.705,0,0,0,1.724-.425l-.209-1.292A.436.436,0,0,0,4563.6-1225.185Z" transform="translate(-4390.26 3.842)" fill="#fff"/><path d="M4409.123-1220.052h-4.6v9.839h2.142v-3.5h2.681a3.087,3.087,0,0,0,2.184-.783,3.25,3.25,0,0,0,.961-2.5,2.977,2.977,0,0,0-.758-2.158A3.459,3.459,0,0,0,4409.123-1220.052Zm-.466,4.645h-2v-2.955h2q1.689,0,1.689,1.484T4408.657-1215.407Z" transform="translate(-4403.825 4.997)" fill="#fff"/><path d="M4418.076-1217.842a1.954,1.954,0,0,0-2.156,1.539v-1.388h-2.009v7.285h2.009v-3.9a1.793,1.793,0,0,1,.437-1.388,2.061,2.061,0,0,1,1.369-.345,4.215,4.215,0,0,1,.759.069l-.016-1.868Z" transform="translate(-4403.003 5.19)" fill="#fff"/><path d="M4423.245-1217.841a3.866,3.866,0,0,0-2.666.893,3.665,3.665,0,0,0-1.15,2.9,3.846,3.846,0,0,0,.888,2.651,3.719,3.719,0,0,0,2.928,1.141,3.9,3.9,0,0,0,2.666-.88,3.68,3.68,0,0,0,1.151-2.912,3.8,3.8,0,0,0-.889-2.639A3.7,3.7,0,0,0,4423.245-1217.841Zm1.318,5.435a1.608,1.608,0,0,1-1.318.624,1.63,1.63,0,0,1-1.252-.536,2.534,2.534,0,0,1-.555-1.73,2.571,2.571,0,0,1,.5-1.643,1.589,1.589,0,0,1,1.311-.624,1.613,1.613,0,0,1,1.252.549,2.476,2.476,0,0,1,.568,1.718A2.539,2.539,0,0,1,4424.563-1212.406Z" transform="translate(-4402.521 5.19)" fill="#fff"/><path d="M4431.816-1216.316a1.35,1.35,0,0,1,.925.289,1.915,1.915,0,0,1,.5,1h1.909a2.978,2.978,0,0,0-.874-1.979,3.455,3.455,0,0,0-2.447-.838,3.576,3.576,0,0,0-2.562.894,3.889,3.889,0,0,0-1.094,3,3.847,3.847,0,0,0,.831,2.6,3.45,3.45,0,0,0,2.782,1.112,3.537,3.537,0,0,0,2.2-.673,2.9,2.9,0,0,0,1.164-2.13h-1.909a2.008,2.008,0,0,1-.517.983,1.333,1.333,0,0,1-.924.3,1.384,1.384,0,0,1-1.187-.6,2.734,2.734,0,0,1-.431-1.628,3.587,3.587,0,0,1,.38-1.718A1.321,1.321,0,0,1,4431.816-1216.316Z" transform="translate(-4401.755 5.19)" fill="#fff"/><path d="M4441.5-1213.305a1.307,1.307,0,0,1-.444,1.044,1.731,1.731,0,0,1-1.173.385,1.144,1.144,0,0,1-1.282-1.305v-4.522h-2.01v4.921a2.541,2.541,0,0,0,.583,1.772,2.6,2.6,0,0,0,2.01.743,2.649,2.649,0,0,0,2.316-1.182v1.031h2v-7.284h-2Z" transform="translate(-4401.018 5.202)" fill="#fff"/><path d="M4449.632-1217.842a1.954,1.954,0,0,0-2.155,1.539v-1.388h-2.01v7.285h2.01v-3.9a1.8,1.8,0,0,1,.437-1.388,2.062,2.062,0,0,1,1.37-.345,4.191,4.191,0,0,1,.758.069l-.015-1.868Z" transform="translate(-4400.241 5.19)" fill="#fff"/><path d="M4456.556-1217.293a3.862,3.862,0,0,0-2.068-.549,3.452,3.452,0,0,0-2.491.907,4.009,4.009,0,0,0-1.078,3,3.83,3.83,0,0,0,.83,2.57,3.361,3.361,0,0,0,2.71,1.114,4.088,4.088,0,0,0,2.265-.625,3.057,3.057,0,0,0,1.3-1.7h-1.982a1.473,1.473,0,0,1-1.5.88,1.5,1.5,0,0,1-1.326-.6,2.563,2.563,0,0,1-.289-1.251h5.185c.01-.137.014-.251.014-.344a5,5,0,0,0-.306-1.855A3.044,3.044,0,0,0,4456.556-1217.293Zm-3.6,2.488q.19-1.594,1.515-1.594,1.413,0,1.559,1.594Z" transform="translate(-4399.764 5.19)" fill="#fff"/><path d="M4468.089-1217.842a2.783,2.783,0,0,0-2.258,1.073,2.2,2.2,0,0,0-2.1-1.073,2.7,2.7,0,0,0-2.112,1.031v-.88h-1.995v7.285h2.01v-4.4a1.453,1.453,0,0,1,.364-1.052,1.325,1.325,0,0,1,1-.377q1.079,0,1.08.948v4.88h2.008v-4.4a1.458,1.458,0,0,1,.366-1.052,1.326,1.326,0,0,1,1.005-.377q1.091,0,1.092.948v4.88h2v-5.183a2.144,2.144,0,0,0-.647-1.655A2.589,2.589,0,0,0,4468.089-1217.842Z" transform="translate(-4399.002 5.19)" fill="#fff"/><path d="M4477.344-1217.293a3.861,3.861,0,0,0-2.068-.549,3.454,3.454,0,0,0-2.492.907,4.014,4.014,0,0,0-1.077,3,3.825,3.825,0,0,0,.83,2.57,3.357,3.357,0,0,0,2.709,1.114,4.087,4.087,0,0,0,2.266-.625,3.053,3.053,0,0,0,1.3-1.7h-1.98a1.474,1.474,0,0,1-1.5.88,1.5,1.5,0,0,1-1.325-.6,2.589,2.589,0,0,1-.291-1.251h5.186c.009-.137.014-.251.014-.344a5.031,5.031,0,0,0-.305-1.855A3.05,3.05,0,0,0,4477.344-1217.293Zm-3.6,2.488q.188-1.594,1.515-1.594,1.412,0,1.56,1.594Z" transform="translate(-4397.945 5.19)" fill="#fff"/><path d="M4484.726-1217.842a2.635,2.635,0,0,0-2.3,1.183v-1.032h-2.01v7.285h2.01v-4.4a1.323,1.323,0,0,1,.437-1.036,1.683,1.683,0,0,1,1.166-.393,1.15,1.15,0,0,1,1.3,1.305v4.523h2v-4.907a2.6,2.6,0,0,0-.583-1.786A2.6,2.6,0,0,0,4484.726-1217.842Z" transform="translate(-4397.183 5.19)" fill="#fff"/><path d="M4493.172-1211.759a2.155,2.155,0,0,1-.86.247.8.8,0,0,1-.561-.152.762.762,0,0,1-.153-.549v-4.053h1.355v-1.252H4491.6v-2.295l-2.01,1.087v1.208h-.991v1.252h.991v4.478q0,1.706,1.966,1.705a4.518,4.518,0,0,0,1.923-.426l-.233-1.292A.5.5,0,0,0,4493.172-1211.759Z" transform="translate(-4396.466 5.018)" fill="#fff"/><path d="M4501.513-1220.053l-3.7,9.84H4500l.7-1.979h3.9l.685,1.979h2.214l-3.613-9.84Zm-.218,6.171,1.369-3.848,1.354,3.848Z" transform="translate(-4395.66 4.996)" fill="#fff"/><path d="M4513.41-1213.305a1.307,1.307,0,0,1-.444,1.044,1.727,1.727,0,0,1-1.172.385,1.143,1.143,0,0,1-1.282-1.305v-4.522H4508.5v4.921a2.546,2.546,0,0,0,.584,1.772,2.6,2.6,0,0,0,2.009.743,2.648,2.648,0,0,0,2.316-1.182v1.031h2v-7.284h-2Z" transform="translate(-4394.724 5.202)" fill="#fff"/><path d="M4521.312-1211.759a2.145,2.145,0,0,1-.86.247.79.79,0,0,1-.559-.152.76.76,0,0,1-.153-.549v-4.053h1.355v-1.252h-1.355v-2.295l-2.011,1.087v1.208h-.99v1.252h.99v4.478q0,1.706,1.967,1.705a4.516,4.516,0,0,0,1.923-.426l-.232-1.292A.626.626,0,0,0,4521.312-1211.759Z" transform="translate(-4394.003 5.018)" fill="#fff"/><path d="M4527.464-1217.649a2.6,2.6,0,0,0-2.26,1.182v-3.587H4523.2v9.84h2.009v-4.4a1.344,1.344,0,0,1,.431-1.031,1.571,1.571,0,0,1,1.114-.4q1.224,0,1.224,1.3v4.522h2.011v-4.906a2.334,2.334,0,0,0-.8-1.966A2.661,2.661,0,0,0,4527.464-1217.649Z" transform="translate(-4393.438 4.996)" fill="#fff"/><path d="M4535.343-1217.841a3.865,3.865,0,0,0-2.666.893,3.666,3.666,0,0,0-1.151,2.9,3.849,3.849,0,0,0,.889,2.651,3.719,3.719,0,0,0,2.928,1.141,3.9,3.9,0,0,0,2.665-.88,3.678,3.678,0,0,0,1.152-2.912,3.809,3.809,0,0,0-.888-2.639A3.707,3.707,0,0,0,4535.343-1217.841Zm1.318,5.435a1.608,1.608,0,0,1-1.318.624,1.635,1.635,0,0,1-1.253-.536,2.538,2.538,0,0,1-.553-1.73,2.568,2.568,0,0,1,.5-1.643,1.588,1.588,0,0,1,1.311-.624,1.617,1.617,0,0,1,1.253.549,2.48,2.48,0,0,1,.566,1.718A2.536,2.536,0,0,1,4536.661-1212.406Z" transform="translate(-4392.708 5.19)" fill="#fff"/><path d="M4544.854-1217.842a1.954,1.954,0,0,0-2.155,1.539v-1.388h-2.01v7.285h2.01v-3.9a1.793,1.793,0,0,1,.436-1.388,2.061,2.061,0,0,1,1.369-.345,4.2,4.2,0,0,1,.759.069l-.015-1.868Z" transform="translate(-4391.907 5.19)" fill="#fff"/><path d="M4548.257-1218.484a.824.824,0,0,0,.27-.625.848.848,0,0,0-.27-.632.913.913,0,0,0-.661-.261.947.947,0,0,0-.673.261.841.841,0,0,0-.275.632.817.817,0,0,0,.275.625.96.96,0,0,0,.673.255A.924.924,0,0,0,4548.257-1218.484Z" transform="translate(-4391.385 5.001)" fill="#fff"/><rect width="2.009" height="7.284" transform="translate(155.22 -1212.501)" fill="#fff"/><path d="M4554.946-1211.759a2.147,2.147,0,0,1-.86.247.8.8,0,0,1-.56-.152.762.762,0,0,1-.153-.549v-4.053h1.355v-1.252h-1.355v-2.295l-2.01,1.087v1.208h-.991v1.252h.991v4.478q0,1.706,1.966,1.705a4.518,4.518,0,0,0,1.923-.426l-.233-1.292A.557.557,0,0,0,4554.946-1211.759Z" transform="translate(-4391.059 5.018)" fill="#fff"/><path d="M4560.037-1212.4l-1.719-5.305h-2.2l2.869,7.586v.151a.993.993,0,0,1-.364.765,1.272,1.272,0,0,1-.873.322,3.888,3.888,0,0,1-.875-.124l-.305,1.278a2.8,2.8,0,0,0,1.4.248,3.088,3.088,0,0,0,1.645-.351,2.406,2.406,0,0,0,.89-1.27l3.176-8.6h-2.054Z" transform="translate(-4390.556 5.202)" fill="#fff"/></g></svg>