<svg xmlns="http://www.w3.org/2000/svg" width="164" height="46.889" viewBox="0 0 164 46.889">
  <g id="org-logo" transform="translate(0 1277.137)">
    <path id="Path_187" data-name="Path 187" d="M4617.993-1255.49H4614.9l4.209-4.222a3.575,3.575,0,0,0-2.9-.362,3.713,3.713,0,0,0-1.518.938l-2.192,2.177-2.222-2.208a3.559,3.559,0,0,0-1.149-.785,3.578,3.578,0,0,0-3.232.241l4.209,4.222h-5.88a2.786,2.786,0,0,0,2.787,2.786h3.038l-4.46,4.458a4.278,4.278,0,0,0,1.8.4,4.18,4.18,0,0,0,2.976-1.229l2.136-2.135,2.136,2.135a4.187,4.187,0,0,0,2.978,1.229,4.286,4.286,0,0,0,1.8-.4l-4.461-4.458h5.825A2.787,2.787,0,0,0,4617.993-1255.49Z" transform="translate(-4471.885 -5.739)" fill="#fff"/>
    <path id="Path_188" data-name="Path 188" d="M4618.27-1274.753l-3.592-2.071a2.333,2.333,0,0,0-3.185.852l3.593,2.072A2.332,2.332,0,0,0,4618.27-1274.753Z" transform="translate(-4474.35)" fill="#fff"/>
    <path id="Path_189" data-name="Path 189" d="M4608.134-1274.02l-4.056-.861a2.332,2.332,0,0,0-2.766,1.792l4.057.863A2.332,2.332,0,0,0,4608.134-1274.02Z" transform="translate(-4470.895 -0.748)" fill="#fff"/>
    <path id="Path_190" data-name="Path 190" d="M4596.748-1267.892a2.33,2.33,0,0,0,2.074-2.56l-4.125.433a2.33,2.33,0,0,0-2.075,2.56Z" transform="translate(-4467.94 -2.269)" fill="#fff"/>
    <path id="Path_191" data-name="Path 191" d="M4591.16-1264.531l-3.788,1.685a2.33,2.33,0,0,0-1.183,3.076l3.789-1.685A2.327,2.327,0,0,0,4591.16-1264.531Z" transform="translate(-4465.693 -4.279)" fill="#fff"/>
    <path id="Path_192" data-name="Path 192" d="M4585.875-1256.371l-3.083,2.772a2.327,2.327,0,0,0-.172,3.288l3.083-2.772A2.327,2.327,0,0,0,4585.875-1256.371Z" transform="translate(-4464.347 -7.048)" fill="#fff"/>
    <path id="Path_193" data-name="Path 193" d="M4583.483-1246.77l-2.073,3.588a2.328,2.328,0,0,0,.852,3.182l2.075-3.588A2.329,2.329,0,0,0,4583.483-1246.77Z" transform="translate(-4464.033 -10.307)" fill="#fff"/>
    <path id="Path_194" data-name="Path 194" d="M4584.217-1236.667l-.862,4.053a2.329,2.329,0,0,0,1.8,2.762l.862-4.052A2.33,2.33,0,0,0,4584.217-1236.667Z" transform="translate(-4464.782 -13.736)" fill="#fff"/>
    <path id="Path_195" data-name="Path 195" d="M4587.79-1227.059l.434,4.121a2.329,2.329,0,0,0,2.562,2.072l-.434-4.121A2.331,2.331,0,0,0,4587.79-1227.059Z" transform="translate(-4466.305 -16.993)" fill="#fff"/>
    <path id="Path_196" data-name="Path 196" d="M4593.715-1218.968l1.687,3.784a2.334,2.334,0,0,0,3.079,1.182l-1.687-3.786A2.332,2.332,0,0,0,4593.715-1218.968Z" transform="translate(-4468.316 -19.675)" fill="#fff"/>
    <path id="Path_197" data-name="Path 197" d="M4601.883-1213.215l2.776,3.08a2.333,2.333,0,0,0,3.292.172l-2.775-3.079A2.334,2.334,0,0,0,4601.883-1213.215Z" transform="translate(-4471.088 -21.494)" fill="#fff"/>
    <path id="Path_198" data-name="Path 198" d="M4611.494-1210.361l3.592,2.071a2.332,2.332,0,0,0,3.185-.852l-3.592-2.072A2.334,2.334,0,0,0,4611.494-1210.361Z" transform="translate(-4474.351 -22.27)" fill="#fff"/>
    <path id="Path_199" data-name="Path 199" d="M4621.606-1210.689l4.057.86a2.33,2.33,0,0,0,2.766-1.792l-4.058-.863A2.331,2.331,0,0,0,4621.606-1210.689Z" transform="translate(-4477.783 -21.928)" fill="#fff"/>
    <path id="Path_200" data-name="Path 200" d="M4633.3-1216.938a2.33,2.33,0,0,0-2.075,2.56l4.126-.433a2.329,2.329,0,0,0,2.074-2.56Z" transform="translate(-4481.043 -20.286)" fill="#fff"/>
    <path id="Path_201" data-name="Path 201" d="M4640.5-1224.282a2.329,2.329,0,0,0-1.182,3.075l3.79-1.685a2.331,2.331,0,0,0,1.183-3.076Z" transform="translate(-4483.728 -17.368)" fill="#fff"/>
    <path id="Path_202" data-name="Path 202" d="M4645.255-1233.324a2.329,2.329,0,0,0-.172,3.29l3.082-2.772a2.328,2.328,0,0,0,.172-3.289Z" transform="translate(-4485.548 -13.93)" fill="#fff"/>
    <path id="Path_203" data-name="Path 203" d="M4649.158-1246.77l-2.074,3.588a2.328,2.328,0,0,0,.854,3.182l2.072-3.588A2.327,2.327,0,0,0,4649.158-1246.77Z" transform="translate(-4486.324 -10.307)" fill="#fff"/>
    <path id="Path_204" data-name="Path 204" d="M4647.612-1250.126l.862-4.052a2.329,2.329,0,0,0-1.8-2.762l-.861,4.052A2.328,2.328,0,0,0,4647.612-1250.126Z" transform="translate(-4485.983 -6.855)" fill="#fff"/>
    <path id="Path_205" data-name="Path 205" d="M4643.918-1259.429l-.435-4.121a2.33,2.33,0,0,0-2.562-2.072l.434,4.121A2.332,2.332,0,0,0,4643.918-1259.429Z" transform="translate(-4484.339 -3.904)" fill="#fff"/>
    <path id="Path_206" data-name="Path 206" d="M4637.083-1267.083l-1.687-3.785a2.332,2.332,0,0,0-3.078-1.181l1.686,3.785A2.334,2.334,0,0,0,4637.083-1267.083Z" transform="translate(-4481.418 -1.658)" fill="#fff"/>
    <path id="Path_207" data-name="Path 207" d="M4628.246-1272.363l-2.775-3.08a2.335,2.335,0,0,0-3.292-.172l2.776,3.079A2.333,2.333,0,0,0,4628.246-1272.363Z" transform="translate(-4477.977 -0.314)" fill="#fff"/>
    <path id="Path_208" data-name="Path 208" d="M4601.01-1235.544v1.4a3.166,3.166,0,0,0,1.523,2.715,18.171,18.171,0,0,1,3.08,2.338,1.771,1.771,0,0,0,1.213.48s3.253-.007,3.25-.011a18.318,18.318,0,0,1,1.239-2.058,17.888,17.888,0,0,1,1.255,2.058s3.249.011,3.249.011a1.773,1.773,0,0,0,1.214-.48,18.121,18.121,0,0,1,3.08-2.338,3.166,3.166,0,0,0,1.524-2.714v-1.4a21.1,21.1,0,0,0-6.945,4.517,18.866,18.866,0,0,0-1.4-2.042,18.037,18.037,0,0,1,8.346-4.829l-.317-.318a4.012,4.012,0,0,0-4.614-.775,21.89,21.89,0,0,0-5.383,3.749,21.9,21.9,0,0,0-5.381-3.75,4.017,4.017,0,0,0-4.616.774l-.317.319a17.9,17.9,0,0,1,1.852.586,18.068,18.068,0,0,1,6.487,4.252,18.873,18.873,0,0,0-1.394,2.034A21.113,21.113,0,0,0,4601.01-1235.544Z" transform="translate(-4470.792 -12.808)" fill="#fff"/>
    <path id="Path_209" data-name="Path 209" d="M4410.509-1257.965a.643.643,0,0,0-.188-.468.61.61,0,0,0-.456-.193.6.6,0,0,0-.445.193.644.644,0,0,0-.189.468.648.648,0,0,0,.189.468.605.605,0,0,0,.445.193.618.618,0,0,0,.456-.193A.647.647,0,0,0,4410.509-1257.965Z" transform="translate(-4405.696 -6.283)" fill="#fff"/>
    <path id="Path_210" data-name="Path 210" d="M4408.223-1257.965a.641.641,0,0,0-.187-.468.61.61,0,0,0-.455-.193.61.61,0,0,0-.457.193.643.643,0,0,0-.188.468.647.647,0,0,0,.188.468.617.617,0,0,0,.457.193.617.617,0,0,0,.455-.193A.645.645,0,0,0,4408.223-1257.965Z" transform="translate(-4404.918 -6.283)" fill="#fff"/>
    <path id="Path_211" data-name="Path 211" d="M4406.914-1264.507h.981a3.013,3.013,0,0,0,1.814-.518,2.377,2.377,0,0,0,.991-1.912h3.191a1.04,1.04,0,0,0,.842-.417h.021l.376.417h6.58a1.041,1.041,0,0,0,.843-.416h.02l.327.416h3.8l.277-.345h.02a1.933,1.933,0,0,0,1.468.65,1.547,1.547,0,0,0,1.288-.63,1.024,1.024,0,0,0,.763.325h4.043a.977.977,0,0,0,.8-.386,1.074,1.074,0,0,0,.268-.732v-6.159h-1.2v5.987a.234.234,0,0,1-.069.173.254.254,0,0,1-.189.082h-3.31a.242.242,0,0,1-.178-.081.329.329,0,0,1-.049-.173v-1.626a1.742,1.742,0,0,0-.655-1.464,2.213,2.213,0,0,0-1.377-.407,2.229,2.229,0,0,0-1.547.569,2.393,2.393,0,0,0-.724,1.86,3.508,3.508,0,0,0,.238,1.321h-3.785v-1.24a2.421,2.421,0,0,0-.665-1.749,2.543,2.543,0,0,0-1.932-.772,5.8,5.8,0,0,0-1.715.295v.986a7.3,7.3,0,0,1,1.467-.224,1.664,1.664,0,0,1,1.185.422,1.451,1.451,0,0,1,.451,1.113v.915a.222.222,0,0,1-.248.254h-6.362v-6.241h-1.2v5.987a.354.354,0,0,1-.061.173.262.262,0,0,1-.2.082h-5.164v.386l.515.651h.615a1.355,1.355,0,0,1-.624,1.128,2.962,2.962,0,0,1-1.447.264,2.579,2.579,0,0,1-1.621-.39,1.682,1.682,0,0,1-.471-1.357v-1.413h-.595l-.614.5v1.027a2.478,2.478,0,0,0,.822,2.011A2.888,2.888,0,0,0,4406.914-1264.507Zm20.907-5.8a.93.93,0,0,1,.778-.386.754.754,0,0,1,.594.234.837.837,0,0,1,.228.61v1.768a1.176,1.176,0,0,1-.833.416.886.886,0,0,1-.763-.446,2.053,2.053,0,0,1-.3-1.159A1.679,1.679,0,0,1,4427.821-1270.311Z" transform="translate(-4403.956 -0.992)" fill="#fff"/>
    <path id="Path_212" data-name="Path 212" d="M4455.24-1267.19v-7.023h-1.209v7.532h.595Z" transform="translate(-4420.903 -0.992)" fill="#fff"/>
    <path id="Path_213" data-name="Path 213" d="M4463.3-1263.812a2.961,2.961,0,0,0,1.893.579h.981a3.571,3.571,0,0,0,1.754-.4,1.788,1.788,0,0,0,1-1.687,1.646,1.646,0,0,0-.475-1.21,3.548,3.548,0,0,0-1.3-.731,2.977,2.977,0,0,1-.941-.483.839.839,0,0,1-.228-.635,1.057,1.057,0,0,1,.317-.813,1.245,1.245,0,0,1,.882-.295,3.845,3.845,0,0,1,.952.143v-.935a3.761,3.761,0,0,0-1.16-.183,2.317,2.317,0,0,0-1.5.447,1.968,1.968,0,0,0-.665,1.626,1.9,1.9,0,0,0,.437,1.311,3.02,3.02,0,0,0,1.348.752,2.648,2.648,0,0,1,.9.427.75.75,0,0,1,.238.589q0,1.047-1.923,1.047a2.9,2.9,0,0,1-1.739-.386,1.656,1.656,0,0,1-.49-1.372v-1.413H4463l-.614.5v1.027A2.482,2.482,0,0,0,4463.3-1263.812Z" transform="translate(-4423.738 -2.267)" fill="#fff"/>
    <path id="Path_214" data-name="Path 214" d="M4476.2-1266.936h.822q-.149,1.392-1.774,1.392a4.429,4.429,0,0,1-.763-.071v.448l.505.64h.03c.185.013.328.021.426.021a3.9,3.9,0,0,0,.912-.112,2.545,2.545,0,0,0,1.139-.6,2.418,2.418,0,0,0,.753-1.717h3.936a1.037,1.037,0,0,0,.841-.417h.021l.366.417h6.59a1.038,1.038,0,0,0,.842-.416h.021l.327.416h2.031l.277-.345h.021a1.93,1.93,0,0,0,1.467.65,1.545,1.545,0,0,0,1.288-.63,1.027,1.027,0,0,0,.764.325h4.043a.975.975,0,0,0,.8-.386,1.07,1.07,0,0,0,.268-.732v-6.159h-1.2v5.987a.237.237,0,0,1-.07.173.254.254,0,0,1-.189.082h-3.309a.242.242,0,0,1-.178-.081.318.318,0,0,1-.05-.173v-1.626a1.743,1.743,0,0,0-.654-1.464,2.216,2.216,0,0,0-1.377-.407,2.228,2.228,0,0,0-1.547.569,2.389,2.389,0,0,0-.723,1.86,3.48,3.48,0,0,0,.238,1.321h-2.021v-1.24a2.425,2.425,0,0,0-.664-1.749,2.547,2.547,0,0,0-1.933-.772,5.793,5.793,0,0,0-1.714.295v.986a7.283,7.283,0,0,1,1.466-.224,1.661,1.661,0,0,1,1.184.422,1.452,1.452,0,0,1,.451,1.113v.915a.222.222,0,0,1-.248.254h-6.362v-3.639h-1.2v3.354a.262.262,0,0,1-.09.2.228.228,0,0,1-.2.082h-3.508v-1.881a1.759,1.759,0,0,0-.713-1.5,2.213,2.213,0,0,0-1.289-.376,2.274,2.274,0,0,0-1.675.651,2.439,2.439,0,0,0-.624,1.778,2.472,2.472,0,0,0,.525,1.606A2.1,2.1,0,0,0,4476.2-1266.936Zm18.151-3.375a.93.93,0,0,1,.779-.386.752.752,0,0,1,.594.234.835.835,0,0,1,.228.61v1.768a1.174,1.174,0,0,1-.832.416.887.887,0,0,1-.763-.446,2.061,2.061,0,0,1-.3-1.159A1.682,1.682,0,0,1,4494.354-1270.311Zm-18.9-.02a.982.982,0,0,1,.8-.366.78.78,0,0,1,.535.2.821.821,0,0,1,.258.64v1.881h-.674a1.137,1.137,0,0,1-.892-.366,1.426,1.426,0,0,1-.327-.986A1.553,1.553,0,0,1,4475.459-1270.331Z" transform="translate(-4427.668 -0.992)" fill="#fff"/>
    <path id="Path_215" data-name="Path 215" d="M4486.93-1272.349a.608.608,0,0,0,.456-.193.627.627,0,0,0,.188-.457.638.638,0,0,0-.188-.467.611.611,0,0,0-.456-.194.6.6,0,0,0-.445.194.642.642,0,0,0-.189.467.632.632,0,0,0,.189.457A.6.6,0,0,0,4486.93-1272.349Z" transform="translate(-4431.855 -1.18)" fill="#fff"/>
    <path id="Path_216" data-name="Path 216" d="M4484.645-1272.349a.608.608,0,0,0,.456-.193.633.633,0,0,0,.188-.457.643.643,0,0,0-.188-.467.611.611,0,0,0-.456-.194.613.613,0,0,0-.457.194.648.648,0,0,0-.188.467.637.637,0,0,0,.188.457A.611.611,0,0,0,4484.645-1272.349Z" transform="translate(-4431.076 -1.18)" fill="#fff"/>
    <path id="Path_217" data-name="Path 217" d="M4520.063-1267.19v-7.023h-1.209v7.532h.594Z" transform="translate(-4442.906 -0.992)" fill="#fff"/>
    <path id="Path_218" data-name="Path 218" d="M4532.2-1272.349a.614.614,0,0,0,.457-.193.634.634,0,0,0,.188-.457.647.647,0,0,0-.187-.468.615.615,0,0,0-.457-.193.6.6,0,0,0-.446.193.647.647,0,0,0-.188.468.635.635,0,0,0,.188.457A.6.6,0,0,0,4532.2-1272.349Z" transform="translate(-4447.223 -1.18)" fill="#fff"/>
    <path id="Path_219" data-name="Path 219" d="M4529.917-1272.349a.611.611,0,0,0,.456-.193.629.629,0,0,0,.188-.457.642.642,0,0,0-.188-.468.612.612,0,0,0-.456-.193.613.613,0,0,0-.456.193.646.646,0,0,0-.188.468.633.633,0,0,0,.188.457A.612.612,0,0,0,4529.917-1272.349Z" transform="translate(-4446.443 -1.18)" fill="#fff"/>
    <path id="Path_220" data-name="Path 220" d="M4540.738-1273.1v-.254h-.664a.415.415,0,0,1-.367-.173.511.511,0,0,1-.1-.314q0-.489.436-.488a1.592,1.592,0,0,1,.367.061v-.54a1.612,1.612,0,0,0-.505-.081.9.9,0,0,0-.673.254.964.964,0,0,0-.249.7,1.137,1.137,0,0,0,.159.579h-.386v.548h1.754Z" transform="translate(-4449.661 -0.762)" fill="#fff"/>
    <path id="Path_221" data-name="Path 221" d="M4548.354-1260.945a.647.647,0,0,0,.188-.468.645.645,0,0,0-.188-.468.611.611,0,0,0-.456-.193.6.6,0,0,0-.446.193.643.643,0,0,0-.188.468.645.645,0,0,0,.188.468.6.6,0,0,0,.446.193A.615.615,0,0,0,4548.354-1260.945Z" transform="translate(-4452.549 -5.113)" fill="#fff"/>
    <path id="Path_222" data-name="Path 222" d="M4546.066-1260.945a.647.647,0,0,0,.189-.468.646.646,0,0,0-.189-.468.608.608,0,0,0-.456-.193.611.611,0,0,0-.456.193.645.645,0,0,0-.188.468.646.646,0,0,0,.188.468.615.615,0,0,0,.456.193A.613.613,0,0,0,4546.066-1260.945Z" transform="translate(-4451.769 -5.113)" fill="#fff"/>
    <path id="Path_223" data-name="Path 223" d="M4548.479-1270.875a5.366,5.366,0,0,0-2.21.509v.7a1.547,1.547,0,0,0-.684.569,1.975,1.975,0,0,0-.3,1.078,2.04,2.04,0,0,0,.1.661,1.74,1.74,0,0,0,.247.519h-3.973v-3.639h-1.2v3.354a.26.26,0,0,1-.088.2.228.228,0,0,1-.2.082h-3.7v-3.639h-1.2v3.354a.259.259,0,0,1-.09.2.228.228,0,0,1-.2.082h-3.468a.2.2,0,0,1-.159-.071.233.233,0,0,1-.069-.183v-3.659h-.6l-.426.335a2.568,2.568,0,0,0-1.03-.224,2.069,2.069,0,0,0-1.555.661,2.566,2.566,0,0,0-.694,1.84,2.548,2.548,0,0,0,.753,1.932,1.944,1.944,0,0,0,1.348.508,1.9,1.9,0,0,0,1.259-.478,1.123,1.123,0,0,0,.822.376h4.232a1.039,1.039,0,0,0,.842-.417h.021l.366.417h3.954a1.039,1.039,0,0,0,.843-.417h.021l.366.417h4.43a1.718,1.718,0,0,0,.733-.112h.04a1.716,1.716,0,0,0,.733.112h2.408a.987.987,0,0,0,.733-.314,1.117,1.117,0,0,0,.337-.8v-1.017a3.146,3.146,0,0,0-.625-2.042A2.594,2.594,0,0,0,4548.479-1270.875Zm-18.395,3.994a1.909,1.909,0,0,1-.742.163,1.023,1.023,0,0,1-.838-.386,1.586,1.586,0,0,1-.312-1.027,1.53,1.53,0,0,1,.347-1.042,1.113,1.113,0,0,1,.882-.4,1.865,1.865,0,0,1,.664.132Zm17.434-.4a.687.687,0,0,1-.524.314.729.729,0,0,1-.556-.345,1.437,1.437,0,0,1-.178-.671,1.32,1.32,0,0,1,.139-.62.64.64,0,0,1,.6-.366.64.64,0,0,1,.5.244,1.11,1.11,0,0,1,.218.742A1.346,1.346,0,0,1,4547.519-1267.276Zm2.508.183a.264.264,0,0,1-.08.193.261.261,0,0,1-.178.061h-1.387a1.9,1.9,0,0,0,.248-.548,2.166,2.166,0,0,0,.089-.631,1.79,1.79,0,0,0-.416-1.219,1.619,1.619,0,0,0-1.031-.549,4.073,4.073,0,0,1,.882-.1,1.858,1.858,0,0,1,1.388.468,2.327,2.327,0,0,1,.486,1.646Z" transform="translate(-4445.669 -2.125)" fill="#fff"/>
    <path id="Path_224" data-name="Path 224" d="M4409.04-1251.833a.6.6,0,0,0,.451-.193.637.637,0,0,0,.187-.458.648.648,0,0,0-.187-.467.6.6,0,0,0-.451-.194.592.592,0,0,0-.441.194.644.644,0,0,0-.187.467.633.633,0,0,0,.187.458A.591.591,0,0,0,4409.04-1251.833Z" transform="translate(-4405.419 -8.144)" fill="#fff"/>
    <path id="Path_225" data-name="Path 225" d="M4405.961-1245.123a1.872,1.872,0,0,0,1.246-.478,1.109,1.109,0,0,0,.814.376h4.191a1.027,1.027,0,0,0,.833-.417h.021l.362.417h3.885a1.022,1.022,0,0,0,.766-.326,1.519,1.519,0,0,0,1.286.631,1.82,1.82,0,0,0,1.5-.742,3.015,3.015,0,0,0,.6-1.921,2.4,2.4,0,0,0-.756-1.9,2.131,2.131,0,0,0-1.461-.528,2.178,2.178,0,0,0-1.394.406,1.735,1.735,0,0,0-.647,1.464v1.626a.239.239,0,0,1-.068.173.249.249,0,0,1-.186.081h-3.679v-3.639h-1.189v3.354a.265.265,0,0,1-.088.2.226.226,0,0,1-.2.082h-3.435a.194.194,0,0,1-.157-.071.229.229,0,0,1-.068-.183v-3.659h-.589l-.422.336a2.521,2.521,0,0,0-1.021-.224,2.044,2.044,0,0,0-1.541.661,2.584,2.584,0,0,0-.687,1.84,2.562,2.562,0,0,0,.746,1.931A1.916,1.916,0,0,0,4405.961-1245.123Zm12.433-3.019a.8.8,0,0,1,.235-.61.708.708,0,0,1,.56-.234.951.951,0,0,1,.766.355,1.834,1.834,0,0,1,.324,1.149,1.864,1.864,0,0,1-.3,1.093.886.886,0,0,1-.755.422,1.09,1.09,0,0,1-.833-.407Zm-12.982-.452a1.1,1.1,0,0,1,.873-.4,1.832,1.832,0,0,1,.657.132v2.561a1.88,1.88,0,0,1-.736.162,1.006,1.006,0,0,1-.829-.386,1.6,1.6,0,0,1-.309-1.026A1.544,1.544,0,0,1,4405.412-1248.593Z" transform="translate(-4403.881 -9.152)" fill="#fff"/>
    <path id="Path_226" data-name="Path 226" d="M4406.777-1253.144a.6.6,0,0,0-.452.194.647.647,0,0,0-.186.467.637.637,0,0,0,.186.458.6.6,0,0,0,.452.193.6.6,0,0,0,.452-.193.637.637,0,0,0,.187-.458.648.648,0,0,0-.187-.467A.6.6,0,0,0,4406.777-1253.144Z" transform="translate(-4404.647 -8.144)" fill="#fff"/>
    <path id="Path_227" data-name="Path 227" d="M4417.26-1240.43a.649.649,0,0,0,.187-.468.651.651,0,0,0-.187-.468.607.607,0,0,0-.452-.193.6.6,0,0,0-.441.193.646.646,0,0,0-.186.468.645.645,0,0,0,.186.468.6.6,0,0,0,.441.193A.605.605,0,0,0,4417.26-1240.43Z" transform="translate(-4408.056 -12.076)" fill="#fff"/>
    <path id="Path_228" data-name="Path 228" d="M4414.547-1240.237a.6.6,0,0,0,.451-.193.649.649,0,0,0,.186-.468.65.65,0,0,0-.186-.468.606.606,0,0,0-.451-.193.608.608,0,0,0-.453.193.65.65,0,0,0-.186.468.648.648,0,0,0,.186.468A.606.606,0,0,0,4414.547-1240.237Z" transform="translate(-4407.286 -12.076)" fill="#fff"/>
    <path id="Path_229" data-name="Path 229" d="M4449.738-1246.494h3.572a.964.964,0,0,0,.795-.386,1.078,1.078,0,0,0,.265-.732v-6.159h-1.187v5.987a.24.24,0,0,1-.068.172.253.253,0,0,1-.187.082h-3.514v-1.24a2.435,2.435,0,0,0-.657-1.749,2.5,2.5,0,0,0-1.914-.772,5.687,5.687,0,0,0-1.7.295v.986a7.164,7.164,0,0,1,1.452-.224,1.637,1.637,0,0,1,1.172.422,1.459,1.459,0,0,1,.446,1.113v.914c0,.17-.081.254-.244.254h-4.367v-.142a3.877,3.877,0,0,0-.667-2.206,4.032,4.032,0,0,0-2.042-1.585l2.052-1.3v-1.149l-3.484,2.084v1.148c0,.054.023.081.07.081a3.169,3.169,0,0,1,2.286,1.22,3.042,3.042,0,0,1,.6,1.585q0,.265-.254.264h-5.888v-1.88a1.767,1.767,0,0,0-.706-1.5,2.175,2.175,0,0,0-1.277-.377,2.238,2.238,0,0,0-1.658.651,2.455,2.455,0,0,0-.618,1.779,2.489,2.489,0,0,0,.52,1.606,2.068,2.068,0,0,0,1.7.762h.813q-.145,1.392-1.755,1.392a4.317,4.317,0,0,1-.756-.071v.447l.5.64h.028c.184.014.326.02.423.02a3.857,3.857,0,0,0,.9-.111,2.516,2.516,0,0,0,1.128-.6,2.432,2.432,0,0,0,.746-1.718h6.28a1.048,1.048,0,0,0,.835-.417h.019l.333.417h4.622a1.031,1.031,0,0,0,.835-.417h.02l.323.417h.206Zm-14.66-1.037h-.668a1.114,1.114,0,0,1-.882-.366,1.433,1.433,0,0,1-.325-.985,1.569,1.569,0,0,1,.3-1.007.969.969,0,0,1,.794-.365.765.765,0,0,1,.53.2.826.826,0,0,1,.255.64Z" transform="translate(-4413.431 -7.883)" fill="#fff"/>
    <path id="Path_230" data-name="Path 230" d="M4467.907-1246.166h.588l.609-.509v-7.023h-1.2Z" transform="translate(-4425.613 -7.956)" fill="#fff"/>
    <path id="Path_231" data-name="Path 231" d="M4475.111-1249.027l-.608.508v1.606a1.77,1.77,0,0,0,.619,1.4,1.556,1.556,0,0,0,1.1.427h5.5a.983.983,0,0,0,.8-.4,1.068,1.068,0,0,0,.255-.722v-3.557h-1.2v3.385a.222.222,0,0,1-.246.254h-4.877a.737.737,0,0,1-.52-.213.765.765,0,0,1-.236-.579v-2.115Z" transform="translate(-4427.852 -9.293)" fill="#fff"/>
    <path id="Path_232" data-name="Path 232" d="M4479.771-1249.047a.648.648,0,0,0,.187-.467.652.652,0,0,0-.187-.468.606.606,0,0,0-.452-.194.594.594,0,0,0-.441.194.651.651,0,0,0-.186.468.647.647,0,0,0,.186.467.591.591,0,0,0,.441.194A.6.6,0,0,0,4479.771-1249.047Z" transform="translate(-4429.274 -9.151)" fill="#fff"/>
    <path id="Path_233" data-name="Path 233" d="M4482.028-1249.047a.644.644,0,0,0,.187-.467.647.647,0,0,0-.187-.468.593.593,0,0,0-.441-.194.605.605,0,0,0-.452.194.651.651,0,0,0-.187.468.648.648,0,0,0,.187.467.6.6,0,0,0,.452.194A.59.59,0,0,0,4482.028-1249.047Z" transform="translate(-4430.04 -9.151)" fill="#fff"/>
    <path id="Path_234" data-name="Path 234" d="M4499.541-1241.365a.648.648,0,0,0-.187.468.647.647,0,0,0,.187.468.6.6,0,0,0,.45.193.589.589,0,0,0,.447-.193.657.657,0,0,0,.182-.468.658.658,0,0,0-.182-.468.59.59,0,0,0-.447-.193A.6.6,0,0,0,4499.541-1241.365Z" transform="translate(-4436.287 -12.076)" fill="#fff"/>
    <path id="Path_235" data-name="Path 235" d="M4494.2-1246.421h1.893a1.01,1.01,0,0,0,.806-.386,1.189,1.189,0,0,0,.255-.732v-3.557h-1.188v3.385a.234.234,0,0,1-.068.172.25.25,0,0,1-.187.082h-5.191a.207.207,0,0,1-.186-.092.225.225,0,0,1-.059-.162v-5.987h-1.2v6.159a1.091,1.091,0,0,0,.354.824.985.985,0,0,0,.707.295h4.063Z" transform="translate(-4432.798 -7.956)" fill="#fff"/>
    <path id="Path_236" data-name="Path 236" d="M4497.283-1241.365a.648.648,0,0,0-.186.468.646.646,0,0,0,.186.468.594.594,0,0,0,.441.193.605.605,0,0,0,.452-.193.65.65,0,0,0,.188-.468.651.651,0,0,0-.187-.468.607.607,0,0,0-.452-.193A.6.6,0,0,0,4497.283-1241.365Z" transform="translate(-4435.521 -12.076)" fill="#fff"/>
    <path id="Path_237" data-name="Path 237" d="M4512.387-1252.026a.633.633,0,0,0,.188-.457.65.65,0,0,0-.187-.468.6.6,0,0,0-.451-.193.6.6,0,0,0-.451.193.651.651,0,0,0-.186.468.634.634,0,0,0,.186.457.6.6,0,0,0,.451.193A.6.6,0,0,0,4512.387-1252.026Z" transform="translate(-4440.342 -8.144)" fill="#fff"/>
    <path id="Path_238" data-name="Path 238" d="M4514.651-1252.026a.636.636,0,0,0,.186-.457.653.653,0,0,0-.186-.468.6.6,0,0,0-.451-.193.593.593,0,0,0-.442.193.647.647,0,0,0-.187.468.631.631,0,0,0,.187.457.593.593,0,0,0,.442.193A.6.6,0,0,0,4514.651-1252.026Z" transform="translate(-4441.113 -8.144)" fill="#fff"/>
    <path id="Path_239" data-name="Path 239" d="M4515.115-1249.927h-1.2v2.216c0,.169-.082.254-.245.254h-2.836v-3.639h-1.187v3.354a.261.261,0,0,1-.088.2.225.225,0,0,1-.2.082H4505.7v-3.639h-1.2v4.32a1.541,1.541,0,0,1-1.737,1.748,3.816,3.816,0,0,1-.608-.051v.437l.481.62c.138.007.265.011.383.011a2.779,2.779,0,0,0,1.737-.539,2.416,2.416,0,0,0,.932-1.87h4.083a1.027,1.027,0,0,0,.833-.417h.02l.364.417h3.062a1,1,0,0,0,.823-.417h.03l.324.417h2.109a1,1,0,0,0,.825-.417h.029l.324.417h2.1a1.026,1.026,0,0,0,.834-.417h.02l.324.417h3.936l.274-.346h.02a1.9,1.9,0,0,0,1.453.651,1.526,1.526,0,0,0,1.275-.63,1.014,1.014,0,0,0,.755.326h4a.967.967,0,0,0,.8-.386,1.081,1.081,0,0,0,.264-.732v-6.159h-1.187v5.987a.238.238,0,0,1-.069.172.249.249,0,0,1-.187.082h-3.277a.239.239,0,0,1-.176-.081.329.329,0,0,1-.049-.173v-1.626a1.749,1.749,0,0,0-.648-1.463,2.18,2.18,0,0,0-1.364-.406,2.19,2.19,0,0,0-1.531.569,2.4,2.4,0,0,0-.716,1.86,3.542,3.542,0,0,0,.235,1.321h-3.925v-3.639h-1.2v3.385a.222.222,0,0,1-.246.254h-1.844v-.163c.006-.081.009-.141.009-.182v-2.714h-1.2v2.805a.221.221,0,0,1-.245.254h-1.855c.007-.068.01-.172.01-.316Zm11.731.133a.915.915,0,0,1,.771-.386.746.746,0,0,1,.589.234.839.839,0,0,1,.226.61v1.769a1.162,1.162,0,0,1-.825.416.877.877,0,0,1-.755-.447,2.073,2.073,0,0,1-.294-1.159A1.69,1.69,0,0,1,4526.846-1249.795Z" transform="translate(-4437.24 -7.956)" fill="#fff"/>
    <path id="Path_240" data-name="Path 240" d="M4525.554-1253.781a.549.549,0,0,0,.412-.173.592.592,0,0,0,.167-.427.609.609,0,0,0-.167-.431.539.539,0,0,0-.412-.178.553.553,0,0,0-.417.178.594.594,0,0,0-.172.431.578.578,0,0,0,.172.427A.564.564,0,0,0,4525.554-1253.781Z" transform="translate(-4444.98 -7.517)" fill="#fff"/>
    <path id="Path_241" data-name="Path 241" d="M4524.4-1251.833a.594.594,0,0,0,.446-.188.64.64,0,0,0,.183-.462.66.66,0,0,0-.183-.468.586.586,0,0,0-.446-.193.589.589,0,0,0-.446.193.659.659,0,0,0-.182.468.639.639,0,0,0,.182.462A.6.6,0,0,0,4524.4-1251.833Z" transform="translate(-4444.577 -8.144)" fill="#fff"/>
    <path id="Path_242" data-name="Path 242" d="M4526.02-1252.484a.63.63,0,0,0,.186.457.594.594,0,0,0,.442.193.606.606,0,0,0,.452-.193.64.64,0,0,0,.186-.457.657.657,0,0,0-.186-.468.605.605,0,0,0-.452-.193.594.594,0,0,0-.442.193A.647.647,0,0,0,4526.02-1252.484Z" transform="translate(-4445.338 -8.144)" fill="#fff"/>
    <path id="Path_243" data-name="Path 243" d="M4554.476-1253.7h-1.2v7.532h.589l.608-.509Z" transform="translate(-4454.591 -7.956)" fill="#fff"/>
    <path id="Path_244" data-name="Path 244" d="M4558.283-1243.754a3.888,3.888,0,0,1-.619-.051v.437l.481.62c.157.013.271.021.343.021a3.371,3.371,0,0,0,.765-.081,2.616,2.616,0,0,0,1.148-.57,2.525,2.525,0,0,0,.8-2.013v-2.673a1.713,1.713,0,0,0-.667-1.464,2.064,2.064,0,0,0-1.315-.417,2.136,2.136,0,0,0-1.677.692,2.408,2.408,0,0,0-.6,1.7,2.668,2.668,0,0,0,.53,1.657,2.037,2.037,0,0,0,1.688.834,2.962,2.962,0,0,0,.824-.122Q4559.861-1243.754,4558.283-1243.754Zm1.079-2.358a1.126,1.126,0,0,1-.9-.381,1.541,1.541,0,0,1-.329-1.042,1.588,1.588,0,0,1,.29-1.007.963.963,0,0,1,.8-.365.732.732,0,0,1,.5.172.823.823,0,0,1,.285.671v1.829A1.884,1.884,0,0,1,4559.362-1246.112Z" transform="translate(-4455.836 -9.23)" fill="#fff"/>
    <path id="Path_245" data-name="Path 245" d="M4408.3-1228.529h-2.719v-4.95h-1.166v5.977h3.885Z" transform="translate(-4404.062 -14.818)" fill="#fff"/>
    <path id="Path_246" data-name="Path 246" d="M4410.813-1228.964a2.521,2.521,0,0,0,.484,1.611,1.922,1.922,0,0,0,1.594.693,1.986,1.986,0,0,0,1.451-.534,2.373,2.373,0,0,0,.626-1.77,2.482,2.482,0,0,0-.483-1.6,1.914,1.914,0,0,0-1.594-.7,1.972,1.972,0,0,0-1.451.542A2.364,2.364,0,0,0,4410.813-1228.964Zm1.365-1a.834.834,0,0,1,.713-.38.844.844,0,0,1,.683.334,1.621,1.621,0,0,1,.309,1.043,1.666,1.666,0,0,1-.273,1,.845.845,0,0,1-.718.38.847.847,0,0,1-.682-.326,1.656,1.656,0,0,1-.3-1.052A1.682,1.682,0,0,1,4412.178-1229.961Z" transform="translate(-4406.233 -15.569)" fill="#fff"/>
    <path id="Path_247" data-name="Path 247" d="M4421.062-1227.06a1.824,1.824,0,0,0,.634-1.294h-1.039a1.278,1.278,0,0,1-.282.6.678.678,0,0,1-.5.18.73.73,0,0,1-.647-.363,1.816,1.816,0,0,1-.234-.989,2.394,2.394,0,0,1,.206-1.044.7.7,0,0,1,.683-.367.688.688,0,0,1,.5.176,1.233,1.233,0,0,1,.273.609h1.039a1.907,1.907,0,0,0-.476-1.2,1.766,1.766,0,0,0-1.332-.509,1.836,1.836,0,0,0-1.4.542,2.525,2.525,0,0,0-.594,1.82,2.518,2.518,0,0,0,.452,1.578,1.786,1.786,0,0,0,1.515.676A1.794,1.794,0,0,0,4421.062-1227.06Z" transform="translate(-4408.639 -15.569)" fill="#fff"/>
    <path id="Path_248" data-name="Path 248" d="M4424.953-1229.114a1.244,1.244,0,0,0-.634,1.186,1.219,1.219,0,0,0,.3.876,1.293,1.293,0,0,0,.983.392,1.528,1.528,0,0,0,1.269-.543.774.774,0,0,0,.127.451h1.19v-.293a.373.373,0,0,1-.253-.392v-2.471a1.288,1.288,0,0,0-.373-1.009,2.077,2.077,0,0,0-1.348-.351q-1.7,0-1.792,1.527h1.046a.679.679,0,0,1,.2-.471.93.93,0,0,1,.567-.13q.625,0,.634.443l.008.318-.855.166A4.087,4.087,0,0,0,4424.953-1229.114Zm1.927.224-.008.326q-.023.976-.872.977-.588,0-.587-.477a.54.54,0,0,1,.158-.392,1.126,1.126,0,0,1,.508-.241Z" transform="translate(-4410.819 -15.569)" fill="#fff"/>
    <rect id="Rectangle_74" data-name="Rectangle 74" width="1.094" height="5.977" transform="translate(18.084 -1248.298)" fill="#fff"/>
    <path id="Path_249" data-name="Path 249" d="M4439.845-1228.792a1.234,1.234,0,0,1-.872.3,1.23,1.23,0,0,1-1.007-.458,2.439,2.439,0,0,1-.427-1.554,2.7,2.7,0,0,1,.339-1.444,1.273,1.273,0,0,1,1.135-.617,1.155,1.155,0,0,1,1.213,1.035h1.111a2.2,2.2,0,0,0-.381-1.161,2.307,2.307,0,0,0-1.99-.925,2.353,2.353,0,0,0-1.8.734,3.282,3.282,0,0,0-.792,2.354,3.492,3.492,0,0,0,.6,2.136,2.308,2.308,0,0,0,1.968.936,2.485,2.485,0,0,0,1.625-.517,2.184,2.184,0,0,0,.792-1.678h-1.133A1.3,1.3,0,0,1,4439.845-1228.792Z" transform="translate(-4414.91 -14.772)" fill="#fff"/>
    <path id="Path_250" data-name="Path 250" d="M4448.385-1230.566a1.911,1.911,0,0,0-1.593-.7,1.972,1.972,0,0,0-1.451.542,2.362,2.362,0,0,0-.626,1.761,2.518,2.518,0,0,0,.483,1.611,1.922,1.922,0,0,0,1.594.693,1.99,1.99,0,0,0,1.452-.534,2.381,2.381,0,0,0,.626-1.77A2.474,2.474,0,0,0,4448.385-1230.566Zm-.875,2.6a.846.846,0,0,1-.718.38.847.847,0,0,1-.682-.326,1.653,1.653,0,0,1-.3-1.052,1.686,1.686,0,0,1,.271-1,.834.834,0,0,1,.713-.38.843.843,0,0,1,.682.334,1.618,1.618,0,0,1,.31,1.043A1.672,1.672,0,0,1,4447.511-1227.966Z" transform="translate(-4417.741 -15.569)" fill="#fff"/>
    <path id="Path_251" data-name="Path 251" d="M4454.517-1231.267a1.391,1.391,0,0,0-1.252.718v-.626h-1.1v4.424h1.1v-2.671a.851.851,0,0,1,.237-.631.859.859,0,0,1,.634-.238q.705,0,.706.793v2.746h1.086v-2.98a1.7,1.7,0,0,0-.317-1.085A1.333,1.333,0,0,0,4454.517-1231.267Z" transform="translate(-4420.271 -15.569)" fill="#fff"/>
    <path id="Path_252" data-name="Path 252" d="M4460.358-1227.329a2.252,2.252,0,0,0,1.047-.258l-.127-.785a.244.244,0,0,0-.04.025,1.081,1.081,0,0,1-.467.15.4.4,0,0,1-.306-.092.506.506,0,0,1-.083-.334v-2.463h.737v-.759h-.737v-1.394l-1.1.66v.734h-.538v.759h.538v2.721A.931.931,0,0,0,4460.358-1227.329Z" transform="translate(-4422.504 -14.9)" fill="#fff"/>
    <path id="Path_253" data-name="Path 253" d="M4467.308-1228.872a3.367,3.367,0,0,0-.167-1.127,1.813,1.813,0,0,0-.69-.934,1.928,1.928,0,0,0-1.125-.334,1.77,1.77,0,0,0-1.356.55,2.6,2.6,0,0,0-.587,1.82,2.5,2.5,0,0,0,.452,1.561,1.742,1.742,0,0,0,1.475.677,2.056,2.056,0,0,0,1.233-.38,1.841,1.841,0,0,0,.71-1.031h-1.079a.8.8,0,0,1-.816.534.79.79,0,0,1-.722-.367,1.725,1.725,0,0,1-.158-.76h2.823C4467.305-1228.746,4467.308-1228.816,4467.308-1228.872Zm-2.816-.551q.1-.968.825-.968.768,0,.848.968Z" transform="translate(-4424.078 -15.569)" fill="#fff"/>
    <path id="Path_254" data-name="Path 254" d="M4471.523-1229.422a.854.854,0,0,1,.238-.631.86.86,0,0,1,.634-.238q.707,0,.707.793v2.746h1.085v-2.98a1.7,1.7,0,0,0-.317-1.085,1.336,1.336,0,0,0-1.095-.45,1.394,1.394,0,0,0-1.252.718v-.626h-1.094v4.424h1.094Z" transform="translate(-4426.469 -15.569)" fill="#fff"/>
    <path id="Path_255" data-name="Path 255" d="M4479.536-1228.372a.267.267,0,0,0-.04.025,1.071,1.071,0,0,1-.467.15.4.4,0,0,1-.305-.092.5.5,0,0,1-.083-.334v-2.463h.737v-.759h-.737v-1.394l-1.094.66v.734h-.54v.759h.54v2.721a.93.93,0,0,0,1.07,1.035,2.247,2.247,0,0,0,1.047-.258Z" transform="translate(-4428.702 -14.9)" fill="#fff"/>
    <path id="Path_256" data-name="Path 256" d="M4487.879-1227.524h1.261l-1.039-1.352a2.742,2.742,0,0,0,.539-1.712v-.083h-.888a.785.785,0,0,1,.009.108,2.013,2.013,0,0,1-.238.918l-.9-1.185a2.667,2.667,0,0,0,.718-.688,1.426,1.426,0,0,0,.194-.764,1.2,1.2,0,0,0-.333-.868,1.418,1.418,0,0,0-1.055-.392,1.533,1.533,0,0,0-1,.342,1.29,1.29,0,0,0-.477,1.035,1.162,1.162,0,0,0,.12.53,4.589,4.589,0,0,0,.523.73,2.858,2.858,0,0,0-.952.752,1.613,1.613,0,0,0-.27.96,1.734,1.734,0,0,0,.444,1.219,1.817,1.817,0,0,0,1.4.551,1.821,1.821,0,0,0,.725-.138,3.7,3.7,0,0,0,.8-.521Zm-1.736-5.133q.451,0,.451.476a.812.812,0,0,1-.468.71l-.087-.117a1.329,1.329,0,0,1-.341-.668Q4485.7-1232.657,4486.143-1232.657Zm-.183,4.274a.761.761,0,0,1-.583-.293.966.966,0,0,1-.258-.659.817.817,0,0,1,.341-.651l.365-.25,1.063,1.411A1.676,1.676,0,0,1,4485.96-1228.383Z" transform="translate(-4431.106 -14.797)" fill="#fff"/>
    <path id="Path_257" data-name="Path 257" d="M4498.9-1228.4l.143.851h.7v-3.256h-2.275v1.028h1.292a1.346,1.346,0,0,1-.278.725,1.435,1.435,0,0,1-1.157.542,1.42,1.42,0,0,1-1.11-.5,2.225,2.225,0,0,1-.516-1.543,2.421,2.421,0,0,1,.373-1.411,1.39,1.39,0,0,1,1.214-.6,1.311,1.311,0,0,1,1.364.926h1.093a2.06,2.06,0,0,0-.681-1.37,2.567,2.567,0,0,0-1.776-.608,2.553,2.553,0,0,0-1.9.751,3.16,3.16,0,0,0-.856,2.337,3.336,3.336,0,0,0,.657,2.1,2.416,2.416,0,0,0,2.007.969A1.949,1.949,0,0,0,4498.9-1228.4Z" transform="translate(-4434.651 -14.772)" fill="#fff"/>
    <path id="Path_258" data-name="Path 258" d="M4504.187-1230.725a2.366,2.366,0,0,0-.625,1.761,2.52,2.52,0,0,0,.483,1.611,1.923,1.923,0,0,0,1.595.693,1.983,1.983,0,0,0,1.45-.534,2.371,2.371,0,0,0,.627-1.77,2.482,2.482,0,0,0-.483-1.6,1.913,1.913,0,0,0-1.593-.7A1.977,1.977,0,0,0,4504.187-1230.725Zm2.134.718a1.616,1.616,0,0,1,.311,1.043,1.666,1.666,0,0,1-.275,1,.844.844,0,0,1-.717.38.85.85,0,0,1-.683-.326,1.658,1.658,0,0,1-.3-1.052,1.686,1.686,0,0,1,.271-1,.834.834,0,0,1,.714-.38A.842.842,0,0,1,4506.32-1230.007Z" transform="translate(-4437.715 -15.569)" fill="#fff"/>
    <path id="Path_259" data-name="Path 259" d="M4512.477-1227.889l-.9-3.239h-1.157l1.467,4.424h1.15l1.443-4.424h-1.142Z" transform="translate(-4440.042 -15.617)" fill="#fff"/>
    <path id="Path_260" data-name="Path 260" d="M4520.146-1230.933a1.932,1.932,0,0,0-1.126-.334,1.77,1.77,0,0,0-1.356.55,2.607,2.607,0,0,0-.586,1.82,2.508,2.508,0,0,0,.452,1.561,1.742,1.742,0,0,0,1.475.677,2.051,2.051,0,0,0,1.232-.38,1.837,1.837,0,0,0,.71-1.031h-1.079a.8.8,0,0,1-.817.534.787.787,0,0,1-.721-.367,1.707,1.707,0,0,1-.16-.76H4521c.006-.083.008-.153.008-.209a3.38,3.38,0,0,0-.167-1.127A1.807,1.807,0,0,0,4520.146-1230.933Zm-1.959,1.511q.1-.968.826-.968.769,0,.848.968Z" transform="translate(-4442.303 -15.569)" fill="#fff"/>
    <path id="Path_261" data-name="Path 261" d="M4524.124-1231.175v4.424h1.094v-2.371a1.166,1.166,0,0,1,.239-.843,1.037,1.037,0,0,1,.745-.209,2.026,2.026,0,0,1,.413.042l-.008-1.135h-.215a1.084,1.084,0,0,0-1.173.934v-.842Z" transform="translate(-4444.694 -15.569)" fill="#fff"/>
    <path id="Path_262" data-name="Path 262" d="M4531.323-1229.5v2.746h1.086v-2.98a1.7,1.7,0,0,0-.317-1.085,1.335,1.335,0,0,0-1.094-.45,1.394,1.394,0,0,0-1.252.718v-.626h-1.095v4.424h1.095v-2.671a.854.854,0,0,1,.238-.631.859.859,0,0,1,.634-.238Q4531.323-1230.291,4531.323-1229.5Z" transform="translate(-4446.231 -15.569)" fill="#fff"/>
    <path id="Path_263" data-name="Path 263" d="M4539.326-1226.751v-2.671a.943.943,0,0,1,.2-.639.683.683,0,0,1,.548-.23.518.518,0,0,1,.594.576v2.963h1.086v-3.147a1.385,1.385,0,0,0-.354-1.006,1.313,1.313,0,0,0-.987-.363,1.458,1.458,0,0,0-1.229.651,1.167,1.167,0,0,0-1.143-.651,1.421,1.421,0,0,0-1.149.626v-.534h-1.086v4.424h1.094v-2.671a.946.946,0,0,1,.2-.639.68.68,0,0,1,.546-.23.515.515,0,0,1,.588.576v2.963Z" transform="translate(-4448.66 -15.569)" fill="#fff"/>
    <path id="Path_264" data-name="Path 264" d="M4549.747-1228.071h-1.079a.8.8,0,0,1-.817.534.789.789,0,0,1-.722-.367,1.725,1.725,0,0,1-.158-.76h2.823c0-.083.008-.153.008-.209a3.38,3.38,0,0,0-.167-1.127,1.813,1.813,0,0,0-.69-.934,1.928,1.928,0,0,0-1.125-.334,1.768,1.768,0,0,0-1.356.55,2.6,2.6,0,0,0-.587,1.82,2.508,2.508,0,0,0,.452,1.561,1.743,1.743,0,0,0,1.475.677,2.056,2.056,0,0,0,1.233-.38A1.84,1.84,0,0,0,4549.747-1228.071Zm-1.935-2.321q.768,0,.848.968h-1.673Q4547.091-1230.391,4547.813-1230.391Z" transform="translate(-4452.079 -15.569)" fill="#fff"/>
    <path id="Path_265" data-name="Path 265" d="M4555.6-1229.5v2.746h1.086v-2.98a1.7,1.7,0,0,0-.317-1.085,1.335,1.335,0,0,0-1.094-.45,1.393,1.393,0,0,0-1.252.718v-.626h-1.095v4.424h1.095v-2.671a.853.853,0,0,1,.237-.631.859.859,0,0,1,.634-.238Q4555.6-1230.291,4555.6-1229.5Z" transform="translate(-4454.471 -15.569)" fill="#fff"/>
    <path id="Path_266" data-name="Path 266" d="M4561.992-1228.347a1.082,1.082,0,0,1-.468.15.4.4,0,0,1-.3-.092.5.5,0,0,1-.084-.334v-2.463h.739v-.759h-.739v-1.394l-1.094.66v.734h-.539v.759h.539v2.721a.931.931,0,0,0,1.071,1.035,2.251,2.251,0,0,0,1.047-.258l-.127-.785A.266.266,0,0,0,4561.992-1228.347Z" transform="translate(-4456.703 -14.9)" fill="#fff"/>
    <path id="Path_267" data-name="Path 267" d="M4407.316-1220.052h-2.8v5.976h1.3v-2.128h1.628a1.875,1.875,0,0,0,1.327-.476,1.973,1.973,0,0,0,.583-1.519,1.809,1.809,0,0,0-.46-1.311A2.1,2.1,0,0,0,4407.316-1220.052Zm-.283,2.821h-1.212v-1.795h1.212q1.025,0,1.026.9T4407.033-1217.231Z" transform="translate(-4404.098 -19.376)" fill="#fff"/>
    <path id="Path_268" data-name="Path 268" d="M4416.44-1217.842a1.187,1.187,0,0,0-1.31.935v-.843h-1.221v4.425h1.221v-2.371a1.089,1.089,0,0,1,.265-.843,1.252,1.252,0,0,1,.832-.209,2.551,2.551,0,0,1,.461.042l-.01-1.135Z" transform="translate(-4407.285 -20.126)" fill="#fff"/>
    <path id="Path_269" data-name="Path 269" d="M4421.747-1217.841a2.349,2.349,0,0,0-1.619.542,2.227,2.227,0,0,0-.7,1.762,2.334,2.334,0,0,0,.54,1.61,2.259,2.259,0,0,0,1.778.693,2.368,2.368,0,0,0,1.619-.535,2.234,2.234,0,0,0,.7-1.769,2.309,2.309,0,0,0-.54-1.6A2.248,2.248,0,0,0,4421.747-1217.841Zm.8,3.3a.976.976,0,0,1-.8.379.99.99,0,0,1-.761-.326,1.539,1.539,0,0,1-.337-1.051,1.561,1.561,0,0,1,.3-1,.965.965,0,0,1,.8-.379.98.98,0,0,1,.761.334,1.5,1.5,0,0,1,.345,1.044A1.542,1.542,0,0,1,4422.547-1214.54Z" transform="translate(-4409.159 -20.126)" fill="#fff"/>
    <path id="Path_270" data-name="Path 270" d="M4430.386-1216.915a.821.821,0,0,1,.563.176,1.168,1.168,0,0,1,.3.609h1.159a1.809,1.809,0,0,0-.531-1.2,2.1,2.1,0,0,0-1.486-.509,2.173,2.173,0,0,0-1.557.543,2.362,2.362,0,0,0-.665,1.82,2.334,2.334,0,0,0,.5,1.578,2.1,2.1,0,0,0,1.689.676,2.148,2.148,0,0,0,1.337-.409,1.763,1.763,0,0,0,.707-1.294h-1.159a1.22,1.22,0,0,1-.314.6.809.809,0,0,1-.561.18.841.841,0,0,1-.721-.363,1.658,1.658,0,0,1-.262-.989,2.183,2.183,0,0,1,.23-1.044A.8.8,0,0,1,4430.386-1216.915Z" transform="translate(-4412.127 -20.126)" fill="#fff"/>
    <path id="Path_271" data-name="Path 271" d="M4439.567-1215.032a.794.794,0,0,1-.27.634,1.051,1.051,0,0,1-.712.234.7.7,0,0,1-.779-.793v-2.747h-1.221v2.989a1.542,1.542,0,0,0,.354,1.076,1.579,1.579,0,0,0,1.221.451,1.609,1.609,0,0,0,1.407-.718v.626h1.213v-4.425h-1.213Z" transform="translate(-4414.982 -20.173)" fill="#fff"/>
    <path id="Path_272" data-name="Path 272" d="M4448-1217.842a1.187,1.187,0,0,0-1.309.935v-.843h-1.221v4.425h1.221v-2.371a1.089,1.089,0,0,1,.266-.843,1.252,1.252,0,0,1,.832-.209,2.54,2.54,0,0,1,.46.042l-.009-1.135Z" transform="translate(-4417.997 -20.126)" fill="#fff"/>
    <path id="Path_273" data-name="Path 273" d="M4454.342-1217.508a2.344,2.344,0,0,0-1.256-.334,2.1,2.1,0,0,0-1.513.551,2.434,2.434,0,0,0-.655,1.82,2.327,2.327,0,0,0,.5,1.561,2.041,2.041,0,0,0,1.646.677,2.483,2.483,0,0,0,1.376-.38,1.858,1.858,0,0,0,.792-1.031h-1.2a.894.894,0,0,1-.911.534.914.914,0,0,1-.806-.367,1.559,1.559,0,0,1-.176-.76h3.149c.006-.083.008-.153.008-.209a3.029,3.029,0,0,0-.186-1.127A1.848,1.848,0,0,0,4454.342-1217.508Zm-2.186,1.511q.116-.968.92-.969.858,0,.947.969Z" transform="translate(-4419.847 -20.126)" fill="#fff"/>
    <path id="Path_274" data-name="Path 274" d="M4464.766-1217.842a1.69,1.69,0,0,0-1.372.652,1.336,1.336,0,0,0-1.275-.652,1.643,1.643,0,0,0-1.283.626v-.534h-1.211v4.425h1.221V-1216a.882.882,0,0,1,.221-.639.8.8,0,0,1,.61-.229q.655,0,.656.576v2.964h1.22V-1216a.885.885,0,0,1,.222-.639.8.8,0,0,1,.61-.229q.663,0,.664.576v2.964h1.212v-3.148a1.3,1.3,0,0,0-.393-1.005A1.572,1.572,0,0,0,4464.766-1217.842Z" transform="translate(-4422.802 -20.126)" fill="#fff"/>
    <path id="Path_275" data-name="Path 275" d="M4475.131-1217.508a2.345,2.345,0,0,0-1.256-.334,2.1,2.1,0,0,0-1.514.551,2.44,2.44,0,0,0-.654,1.82,2.322,2.322,0,0,0,.5,1.561,2.038,2.038,0,0,0,1.646.677,2.481,2.481,0,0,0,1.376-.38,1.853,1.853,0,0,0,.792-1.031h-1.2a.9.9,0,0,1-.912.534.912.912,0,0,1-.8-.367,1.569,1.569,0,0,1-.177-.76h3.15c.005-.083.008-.153.008-.209a3.06,3.06,0,0,0-.185-1.127A1.854,1.854,0,0,0,4475.131-1217.508Zm-2.186,1.511q.114-.968.92-.969.858,0,.947.969Z" transform="translate(-4426.903 -20.126)" fill="#fff"/>
    <path id="Path_276" data-name="Path 276" d="M4483.033-1217.842a1.6,1.6,0,0,0-1.4.719v-.627h-1.221v4.425h1.221V-1216a.8.8,0,0,1,.265-.63,1.022,1.022,0,0,1,.708-.239.7.7,0,0,1,.787.793v2.747h1.213v-2.981a1.578,1.578,0,0,0-.354-1.085A1.577,1.577,0,0,0,4483.033-1217.842Z" transform="translate(-4429.858 -20.126)" fill="#fff"/>
    <path id="Path_277" data-name="Path 277" d="M4491.376-1214.921a1.309,1.309,0,0,1-.522.15.485.485,0,0,1-.341-.093.462.462,0,0,1-.093-.333v-2.462h.823v-.76h-.823v-1.394l-1.221.66v.734h-.6v.76h.6v2.72q0,1.036,1.194,1.036a2.745,2.745,0,0,0,1.168-.259l-.141-.785A.29.29,0,0,0,4491.376-1214.921Z" transform="translate(-4432.635 -19.457)" fill="#fff"/>
    <path id="Path_278" data-name="Path 278" d="M4500.06-1220.053l-2.248,5.977h1.327l.425-1.2h2.372l.416,1.2h1.345l-2.195-5.977Zm-.133,3.748.832-2.337.823,2.337Z" transform="translate(-4435.764 -19.376)" fill="#fff"/>
    <path id="Path_279" data-name="Path 279" d="M4511.483-1215.032a.8.8,0,0,1-.27.634,1.049,1.049,0,0,1-.712.234.7.7,0,0,1-.779-.793v-2.747H4508.5v2.989a1.547,1.547,0,0,0,.354,1.076,1.578,1.578,0,0,0,1.22.451,1.609,1.609,0,0,0,1.407-.718v.626h1.213v-4.425h-1.213Z" transform="translate(-4439.392 -20.173)" fill="#fff"/>
    <path id="Path_280" data-name="Path 280" d="M4519.517-1214.921a1.3,1.3,0,0,1-.522.15.481.481,0,0,1-.34-.093.462.462,0,0,1-.093-.333v-2.462h.824v-.76h-.824v-1.394l-1.221.66v.734h-.6v.76h.6v2.72q0,1.036,1.195,1.036a2.744,2.744,0,0,0,1.168-.259l-.141-.785A.382.382,0,0,0,4519.517-1214.921Z" transform="translate(-4442.188 -19.457)" fill="#fff"/>
    <path id="Path_281" data-name="Path 281" d="M4525.788-1218.593a1.577,1.577,0,0,0-1.373.718v-2.178h-1.22v5.977h1.22v-2.672a.816.816,0,0,1,.262-.626.955.955,0,0,1,.676-.242q.744,0,.743.793v2.747h1.222v-2.98a1.417,1.417,0,0,0-.486-1.194A1.617,1.617,0,0,0,4525.788-1218.593Z" transform="translate(-4444.38 -19.376)" fill="#fff"/>
    <path id="Path_282" data-name="Path 282" d="M4533.844-1217.841a2.347,2.347,0,0,0-1.619.542,2.227,2.227,0,0,0-.7,1.762,2.339,2.339,0,0,0,.54,1.61,2.26,2.26,0,0,0,1.779.693,2.367,2.367,0,0,0,1.619-.535,2.233,2.233,0,0,0,.7-1.769,2.311,2.311,0,0,0-.54-1.6A2.25,2.25,0,0,0,4533.844-1217.841Zm.8,3.3a.976.976,0,0,1-.8.379.992.992,0,0,1-.761-.326,1.541,1.541,0,0,1-.336-1.051,1.561,1.561,0,0,1,.3-1,.965.965,0,0,1,.8-.379.982.982,0,0,1,.761.334,1.506,1.506,0,0,1,.344,1.044A1.539,1.539,0,0,1,4534.645-1214.54Z" transform="translate(-4447.207 -20.126)" fill="#fff"/>
    <path id="Path_283" data-name="Path 283" d="M4543.219-1217.842a1.187,1.187,0,0,0-1.31.935v-.843h-1.221v4.425h1.221v-2.371a1.089,1.089,0,0,1,.265-.843,1.253,1.253,0,0,1,.832-.209,2.551,2.551,0,0,1,.461.042l-.009-1.135Z" transform="translate(-4450.317 -20.126)" fill="#fff"/>
    <path id="Path_284" data-name="Path 284" d="M4547.625-1219.08a.5.5,0,0,0,.164-.38.516.516,0,0,0-.164-.384.554.554,0,0,0-.4-.159.577.577,0,0,0-.409.159.51.51,0,0,0-.167.384.5.5,0,0,0,.167.38.584.584,0,0,0,.409.155A.561.561,0,0,0,4547.625-1219.08Z" transform="translate(-4452.34 -19.393)" fill="#fff"/>
    <rect id="Rectangle_75" data-name="Rectangle 75" width="1.221" height="4.425" transform="translate(94.282 -1237.876)" fill="#fff"/>
    <path id="Path_285" data-name="Path 285" d="M4553.15-1214.921a1.309,1.309,0,0,1-.522.15.484.484,0,0,1-.34-.093.464.464,0,0,1-.093-.333v-2.462h.823v-.76h-.823v-1.394l-1.221.66v.734h-.6v.76h.6v2.72q0,1.036,1.194,1.036a2.745,2.745,0,0,0,1.168-.259l-.142-.785A.316.316,0,0,0,4553.15-1214.921Z" transform="translate(-4453.604 -19.457)" fill="#fff"/>
    <path id="Path_286" data-name="Path 286" d="M4558.5-1214.481l-1.044-3.223h-1.336l1.742,4.608v.092a.6.6,0,0,1-.221.464.772.772,0,0,1-.53.2,2.356,2.356,0,0,1-.531-.075l-.186.776a1.7,1.7,0,0,0,.85.15,1.875,1.875,0,0,0,1-.213,1.458,1.458,0,0,0,.54-.771l1.929-5.226h-1.248Z" transform="translate(-4455.554 -20.173)" fill="#fff"/>
  </g>
</svg>
