<svg id="Group_47" data-name="Group 47" xmlns="http://www.w3.org/2000/svg" xmlns:xlink="http://www.w3.org/1999/xlink" width="57" height="57" viewBox="0 0 57 57">
  <defs>
    <clipPath id="clip-path">
      <rect id="SVGID" width="57" height="57" transform="translate(0)" fill="#fff"/>
    </clipPath>
    <clipPath id="clip-path-2">
      <rect id="SVGID-2" data-name="SVGID" width="57" height="57" transform="translate(0 0.001)" fill="#fff"/>
    </clipPath>
    <clipPath id="clip-path-3">
      <rect id="SVGID-3" data-name="SVGID" width="56.89" height="56.89" fill="#fff"/>
    </clipPath>
  </defs>
  <g id="Group_46" data-name="Group 46" transform="translate(0 0)" clip-path="url(#clip-path)">
    <g id="Group_45" data-name="Group 45" transform="translate(0 -0.001)">
      <g id="Group_44" data-name="Group 44" clip-path="url(#clip-path-2)">
        <g id="Group_43" data-name="Group 43" transform="translate(0.079 0.079)">
          <g id="Group_42" data-name="Group 42" clip-path="url(#clip-path-3)">
            <path id="Path_43" data-name="Path 43" d="M660.966,358.7a1.165,1.165,0,0,0-.335,1.032l.184,1.086-.973-.513a1.175,1.175,0,0,0-1.086,0l-.975.513.187-1.086a1.17,1.17,0,0,0-.336-1.032l-.788-.769,1.089-.158a1.164,1.164,0,0,0,.878-.639l.488-.987.487.988a1.168,1.168,0,0,0,.878.637l1.089.158Zm2.03-2.273-1.831-.266-.818-1.66a1.168,1.168,0,0,0-2.093,0l-.82,1.66-1.831.266a1.167,1.167,0,0,0-.646,1.991l1.324,1.292-.311,1.824a1.166,1.166,0,0,0,1.693,1.231l1.638-.862,1.637.862a1.168,1.168,0,0,0,1.694-1.231l-.313-1.824,1.326-1.292a1.167,1.167,0,0,0-.648-1.991ZM681.149,370.1h-6.736a.834.834,0,0,0,0,1.668h6.736a.768.768,0,0,1,.767.769v10.834a.769.769,0,0,1-.767.769H648.56a.768.768,0,0,1-.767-.769V372.538a.768.768,0,0,1,.767-.769h21.964a.834.834,0,0,0,0-1.668H648.56a2.438,2.438,0,0,0-2.435,2.436v10.834a2.437,2.437,0,0,0,2.435,2.435h32.589a2.437,2.437,0,0,0,2.433-2.435V372.538A2.438,2.438,0,0,0,681.149,370.1Zm-9.073-11.4a1.165,1.165,0,0,0-.335,1.032l.186,1.086-.975-.513a1.172,1.172,0,0,0-1.085,0l-.975.513.186-1.086a1.169,1.169,0,0,0-.335-1.032l-.788-.769,1.089-.158a1.168,1.168,0,0,0,.878-.639l.487-.987.487.988a1.17,1.17,0,0,0,.88.637l1.089.158Zm2.032-2.273-1.831-.266-.82-1.66a1.168,1.168,0,0,0-2.093,0l-.82,1.66-1.831.266a1.167,1.167,0,0,0-.646,1.991l1.326,1.292-.313,1.824a1.167,1.167,0,0,0,1.693,1.231l1.638-.862,1.638.862a1.169,1.169,0,0,0,1.694-1.231l-.314-1.824,1.326-1.292a1.167,1.167,0,0,0-.646-1.991Zm-7.587,21.849a1.171,1.171,0,0,0-.336,1.033l.187,1.085-.975-.512a1.164,1.164,0,0,0-1.086,0l-.975.512.187-1.085a1.167,1.167,0,0,0-.336-1.033l-.788-.767,1.089-.158a1.17,1.17,0,0,0,.88-.64l.487-.987.487.988a1.168,1.168,0,0,0,.878.639l1.089.158Zm2.973-1.478a1.161,1.161,0,0,0-.941-.794l-1.833-.266-.818-1.66a1.167,1.167,0,0,0-2.093,0l-.82,1.66-1.831.266a1.167,1.167,0,0,0-.646,1.991l1.326,1.291-.313,1.826a1.166,1.166,0,0,0,1.693,1.229l1.638-.861,1.638.861a1.167,1.167,0,0,0,1.693-1.229l-.313-1.826L669.2,378A1.164,1.164,0,0,0,669.494,376.8ZM635.563,346a7.161,7.161,0,0,1-4.56-1.631,4.65,4.65,0,0,1,2.413-3.253,3.779,3.779,0,0,0,4.291,0,4.608,4.608,0,0,1,2.413,3.255A7.163,7.163,0,0,1,635.563,346Zm-2.129-9.012a2.129,2.129,0,0,1,4.258,0v1a2.129,2.129,0,0,1-4.258,0Zm2.129-7.058a8.8,8.8,0,0,0-3.679.8.833.833,0,1,0,.693,1.516,7.2,7.2,0,0,1,8.869,10.7,6.276,6.276,0,0,0-2.58-3.091,3.789,3.789,0,0,0,.491-1.866v-1a3.795,3.795,0,1,0-7.59,0v1a3.758,3.758,0,0,0,.494,1.868,6.311,6.311,0,0,0-2.58,3.093,7.19,7.19,0,0,1,.2-8.575.833.833,0,1,0-1.314-1.025,8.779,8.779,0,0,0-1.872,5.45,8.868,8.868,0,1,0,8.869-8.869Zm42.07,9.266a1.165,1.165,0,0,0-.336,1.033l.186,1.084-.973-.513a1.177,1.177,0,0,0-1.087,0l-.973.513.186-1.084a1.163,1.163,0,0,0-.335-1.033l-.789-.769,1.089-.158a1.168,1.168,0,0,0,.88-.639l.487-.987.488.987a1.164,1.164,0,0,0,.877.639l1.09.158Zm2.03-2.273-1.831-.266-.82-1.659a1.166,1.166,0,0,0-2.093,0l-.819,1.659-1.831.266a1.167,1.167,0,0,0-.648,1.991l1.326,1.292-.313,1.824a1.168,1.168,0,0,0,1.694,1.231l1.637-.861,1.64.861a1.167,1.167,0,0,0,1.692-1.231l-.313-1.824,1.326-1.292a1.168,1.168,0,0,0-.647-1.991Zm2.254,7.293a.768.768,0,0,1-.767.767H648.56a.767.767,0,0,1-.767-.767V333.384a.767.767,0,0,1,.767-.767h32.589a.768.768,0,0,1,.767.767Zm-.767-13.271H648.56a2.438,2.438,0,0,0-2.435,2.435V344.22a2.437,2.437,0,0,0,2.435,2.435h32.589a2.437,2.437,0,0,0,2.433-2.435V333.384A2.438,2.438,0,0,0,681.149,330.949ZM655.41,339.2a1.165,1.165,0,0,0-.336,1.033l.186,1.084-.974-.513a1.174,1.174,0,0,0-1.086,0l-.975.513.186-1.084a1.163,1.163,0,0,0-.335-1.033l-.789-.769,1.089-.158a1.166,1.166,0,0,0,.88-.639l.487-.987.488.987a1.164,1.164,0,0,0,.877.639l1.09.158Zm2.03-2.273-1.831-.266-.82-1.659a1.166,1.166,0,0,0-2.093,0l-.818,1.659-1.831.266a1.167,1.167,0,0,0-.647,1.991l1.326,1.292-.311,1.824a1.167,1.167,0,0,0,1.693,1.231l1.637-.861,1.64.861a1.167,1.167,0,0,0,1.693-1.231l-.313-1.824,1.326-1.292a1.168,1.168,0,0,0-.647-1.991Zm9.08,2.273a1.169,1.169,0,0,0-.336,1.033l.187,1.084-.975-.513a1.174,1.174,0,0,0-1.086,0l-.975.513.187-1.084a1.165,1.165,0,0,0-.336-1.033l-.788-.769,1.089-.158a1.17,1.17,0,0,0,.88-.639l.487-.987.487.987a1.168,1.168,0,0,0,.878.639l1.089.158Zm2.032-2.273-1.833-.266L665.9,335a1.166,1.166,0,0,0-2.093,0l-.82,1.659-1.831.266a1.167,1.167,0,0,0-.646,1.991l1.326,1.292-.313,1.824a1.166,1.166,0,0,0,1.693,1.231l1.638-.861,1.638.861a1.167,1.167,0,0,0,1.693-1.231l-.313-1.824,1.326-1.292a1.167,1.167,0,0,0-.646-1.991ZM681.917,363.8a.768.768,0,0,1-.767.769H648.56a.767.767,0,0,1-.767-.769V352.961a.767.767,0,0,1,.767-.767h32.589a.768.768,0,0,1,.767.767Zm-.767-13.269H648.56a2.438,2.438,0,0,0-2.435,2.435V363.8a2.438,2.438,0,0,0,2.435,2.435h32.589a2.438,2.438,0,0,0,2.433-2.435V352.961A2.437,2.437,0,0,0,681.149,350.526Zm-39.7,31.575a6.269,6.269,0,0,0-2.58-3.091,3.775,3.775,0,0,0,.493-1.866v-1a3.8,3.8,0,0,0-7.591,0v1a3.767,3.767,0,0,0,.494,1.868,6.352,6.352,0,0,0-.953.718,6.287,6.287,0,0,0-1.627,2.375,7.2,7.2,0,1,1,11.764,0Zm-8.012-4.958v-1a2.129,2.129,0,0,1,4.258,0v1a2.129,2.129,0,0,1-4.258,0Zm2.129,8.014a7.17,7.17,0,0,1-4.56-1.633,4.639,4.639,0,0,1,2.413-3.253,3.786,3.786,0,0,0,4.292,0,4.6,4.6,0,0,1,2.411,3.253A7.164,7.164,0,0,1,635.563,385.157Zm0-16.071a8.869,8.869,0,1,0,8.867,8.869A8.879,8.879,0,0,0,635.563,369.086Zm5.883-6.561a6.266,6.266,0,0,0-2.581-3.091,3.777,3.777,0,0,0,.494-1.866v-1a3.8,3.8,0,0,0-7.591,0v1a3.766,3.766,0,0,0,.494,1.868,6.291,6.291,0,0,0-2.58,3.091,7.2,7.2,0,1,1,11.764,0Zm-8.012-4.958v-1a2.129,2.129,0,0,1,4.258,0v1a2.129,2.129,0,0,1-4.258,0Zm2.129,8.012a7.162,7.162,0,0,1-4.56-1.633,4.628,4.628,0,0,1,2.413-3.252,3.786,3.786,0,0,0,4.291,0,4.605,4.605,0,0,1,2.413,3.255A7.171,7.171,0,0,1,635.563,365.58Zm0-16.07a8.869,8.869,0,1,0,8.867,8.869A8.879,8.879,0,0,0,635.563,349.51Z" transform="translate(-626.694 -329.934)" fill="#fff"/>
          </g>
        </g>
      </g>
    </g>
  </g>
</svg>
